<?xml version="1.0" encoding="UTF-8" standalone="no"?>
<!DOCTYPE svg PUBLIC "-//W3C//DTD SVG 1.1//EN" "http://www.w3.org/Graphics/SVG/1.1/DTD/svg11.dtd">
<svg width="100%" height="100%" viewBox="0 0 44 44" version="1.1" xmlns="http://www.w3.org/2000/svg" xmlns:xlink="http://www.w3.org/1999/xlink" xml:space="preserve" xmlns:serif="http://www.serif.com/" style="fill-rule:evenodd;clip-rule:evenodd;stroke-linejoin:round;stroke-miterlimit:2;">
    <g id="primary" transform="matrix(2.04863,0,0,2.04863,-2.58354,-2.58354)">
        <path d="M20.35,5.06L12.35,2.06C12.124,1.98 11.876,1.98 11.65,2.06L3.65,5.06C3.259,5.206 2.999,5.582 3,6L3,18C2.999,18.418 3.259,18.794 3.65,18.94L11.65,21.94C11.876,22.02 12.124,22.02 12.35,21.94L20.35,18.94C20.741,18.794 21.001,18.418 21,18L21,6C21.001,5.582 20.741,5.206 20.35,5.06Z" style="fill-rule:nonzero;"/>
    </g>
    <g id="secondary" transform="matrix(2.04863,0,0,2.04863,-2.58354,-2.58354)">
        <path d="M21,5.71L12.4,8.93C12.174,9.01 11.926,9.01 11.7,8.93L3.05,5.71C3.138,5.412 3.36,5.172 3.65,5.06L11.65,2.06C11.876,1.98 12.124,1.98 12.35,2.06L20.35,5.06C20.659,5.158 20.902,5.401 21,5.71Z" style="fill:rgb(44,169,188);fill-rule:nonzero;"/>
    </g>
</svg>
