<?xml version="1.0" encoding="UTF-8" standalone="no"?>
<!DOCTYPE svg PUBLIC "-//W3C//DTD SVG 1.1//EN" "http://www.w3.org/Graphics/SVG/1.1/DTD/svg11.dtd">
<svg width="100%" height="100%" viewBox="0 0 1024 1208" version="1.1" xmlns="http://www.w3.org/2000/svg" xmlns:xlink="http://www.w3.org/1999/xlink" xml:space="preserve" xmlns:serif="http://www.serif.com/" style="fill-rule:evenodd;clip-rule:evenodd;stroke-linecap:round;stroke-linejoin:round;stroke-miterlimit:10;">
    <g transform="matrix(5.95249,0,0,5.95249,-1505.89,-1777)">
        <g transform="matrix(1,0,0,1,419.204,372.956)">
            <path d="M0,-20.493L-11.188,0L-18.897,-3.251L0,-20.493Z" style="fill:none;fill-rule:nonzero;stroke:rgb(212,229,63);stroke-width:0.03px;"/>
        </g>
        <g transform="matrix(1,0,0,1,419.204,360.196)">
            <path d="M0,-7.733L-18.897,9.509L-14.009,-17.242L0,-7.733Z" style="fill:none;fill-rule:nonzero;stroke:rgb(212,229,63);stroke-width:0.03px;"/>
        </g>
        <g transform="matrix(1,0,0,1,419.204,319.288)">
            <path d="M0,33.175L-14.009,23.666L-10.953,0L0,33.175Z" style="fill:none;fill-rule:nonzero;stroke:rgb(212,229,63);stroke-width:0.03px;"/>
        </g>
        <g transform="matrix(1,0,0,1,347.532,500.188)">
            <path d="M0,-7.046L-9.423,0.933L-5.657,-7.979L0,-7.046Z" style="fill:none;fill-rule:nonzero;stroke:rgb(212,229,63);stroke-width:0.03px;"/>
        </g>
        <g transform="matrix(1,0,0,1,419.204,319.288)">
            <path d="M0,33.175L-10.953,0L5.479,13.725L0,33.175Z" style="fill:none;fill-rule:nonzero;stroke:rgb(212,229,63);stroke-width:0.03px;"/>
        </g>
        <g transform="matrix(1,0,0,1,405.195,352.124)">
            <path d="M0,-9.169L-4.889,17.582L-23.417,-26.751L0,-9.169Z" style="fill:none;fill-rule:nonzero;stroke:rgb(212,229,63);stroke-width:0.03px;"/>
        </g>
        <g transform="matrix(-0.73301,-0.680217,-0.680217,0.73301,313.901,348.51)">
            <path d="M-7.179,23.774L-6.194,23.774L8.689,3.888L8.802,2.327L-7.179,23.774Z" style="fill:none;fill-rule:nonzero;stroke:rgb(212,229,63);stroke-width:0.03px;"/>
        </g>
        <g transform="matrix(-0.62524,0.780432,0.780432,0.62524,304.167,342.726)">
            <path d="M0.109,2.266L1.675,2.266L-2.357,-0.318L-2.302,-0.142L0.109,2.266Z" style="fill:none;fill-rule:nonzero;stroke:rgb(212,229,63);stroke-width:0.03px;"/>
        </g>
        <g transform="matrix(1,0,0,1,305.867,340.841)">
            <path d="M0,3.387L-0.372,0L-0.222,0.221L0,3.387Z" style="fill:none;fill-rule:nonzero;stroke:rgb(212,229,63);stroke-width:0.03px;"/>
        </g>
        <g transform="matrix(1,0,0,1,313.064,355.429)">
            <path d="M0,4.188L-10.072,15.39L-7.197,-11.202L0,4.188Z" style="fill:none;fill-rule:nonzero;stroke:rgb(212,229,63);stroke-width:0.03px;"/>
        </g>
        <g transform="matrix(-0.42361,-0.905845,-0.905845,0.42361,316.187,343.049)">
            <path d="M-13.685,9.848L3.304,9.848L6.266,8.708L2.066,8.042L-13.685,9.848Z" style="fill:none;fill-rule:nonzero;stroke:rgb(212,229,63);stroke-width:0.03px;"/>
        </g>
        <g transform="matrix(-0.317647,-0.948209,-0.948209,0.317647,317.56,348.71)">
            <path d="M-8.914,7.728L6.94,7.728L-8.065,5.668L-10.195,6.707L-8.914,7.728Z" style="fill:none;fill-rule:nonzero;stroke:rgb(212,229,63);stroke-width:0.03px;"/>
        </g>
        <g transform="matrix(1,0,0,1,313.064,361.07)">
            <path d="M0,-1.453L1.375,-0.563L1.301,0L0,-1.453Z" style="fill:none;fill-rule:nonzero;stroke:rgb(212,229,63);stroke-width:0.03px;"/>
        </g>
        <g transform="matrix(-0.443645,-0.896203,-0.896203,0.443645,316.763,343.134)">
            <path d="M-12.569,8.472L2.576,8.472L5.273,7.83L-12.379,8.344L-12.569,8.472Z" style="fill:none;fill-rule:nonzero;stroke:rgb(212,229,63);stroke-width:0.03px;"/>
        </g>
        <g transform="matrix(0.22399,0.974591,0.974591,-0.22399,306.23,341.953)">
            <path d="M0.194,1.163L2.967,1.163L-3.507,0.184L-4.233,0.244L0.194,1.163Z" style="fill:none;fill-rule:nonzero;stroke:rgb(212,229,63);stroke-width:0.03px;"/>
        </g>
        <g transform="matrix(1,0,0,1,313.064,364.417)">
            <path d="M0,-4.8L1.301,-3.347L0.86,0L0,-4.8Z" style="fill:none;fill-rule:nonzero;stroke:rgb(212,229,63);stroke-width:0.03px;"/>
        </g>
        <g transform="matrix(1,0,0,1,253.317,320.211)">
            <path d="M0,5.953L16.46,-6.104L18.049,12.057L0,5.953Z" style="fill:none;fill-rule:nonzero;stroke:rgb(212,229,63);stroke-width:0.03px;"/>
        </g>
        <g transform="matrix(1,0,0,1,269.777,303.095)">
            <path d="M0,11.011L11.673,5.02L26.762,0L0,11.011Z" style="fill:none;fill-rule:nonzero;stroke:rgb(212,229,63);stroke-width:0.03px;"/>
        </g>
        <g transform="matrix(1,0,0,1,305.52,368)">
            <path d="M0,-30.227L0.104,-29.506L-18.637,11.079L-1.604,-41.306L-0.035,-30.467L-0.077,-30.395L0,-30.227Z" style="fill:none;fill-rule:nonzero;stroke:rgb(212,229,63);stroke-width:0.03px;"/>
        </g>
        <g transform="matrix(1,0,0,1,286.883,338.495)">
            <path d="M0,40.585L18.74,0L18.509,2.193L18.004,6.955L15.387,31.655L14.692,38.211L0,40.585Z" style="fill:none;fill-rule:nonzero;stroke:rgb(212,229,63);stroke-width:0.03px;"/>
        </g>
        <g transform="matrix(1,0,0,1,305.485,326.694)">
            <path d="M0,10.839L-1.569,0L0.661,9.7L0,10.839Z" style="fill:none;fill-rule:nonzero;stroke:rgb(212,229,63);stroke-width:0.03px;"/>
        </g>
        <g transform="matrix(1,0,0,1,306.146,326.695)">
            <path d="M0,9.7L-2.23,0L0.779,8.355L0,9.7Z" style="fill:none;fill-rule:nonzero;stroke:rgb(212,229,63);stroke-width:0.03px;"/>
        </g>
        <g transform="matrix(1,0,0,1,306.925,326.694)">
            <path d="M0,8.355L-3.01,0L1.429,5.894L0,8.355Z" style="fill:none;fill-rule:nonzero;stroke:rgb(212,229,63);stroke-width:0.03px;"/>
        </g>
        <g transform="matrix(1,0,0,1,308.354,312.27)">
            <path d="M0,20.318L-4.438,14.424L-6.442,0L0,20.318Z" style="fill:none;fill-rule:nonzero;stroke:rgb(212,229,63);stroke-width:0.03px;"/>
        </g>
        <g transform="matrix(1,0,0,1,303.915,379.079)">
            <path d="M0,-52.385L-17.032,0L-30.687,-13.16L0,-52.385Z" style="fill:none;fill-rule:nonzero;stroke:rgb(212,229,63);stroke-width:0.03px;"/>
        </g>
        <g transform="matrix(1,0,0,1,308.354,307.732)">
            <path d="M0,24.856L-6.442,4.538L1.177,0L0,24.856Z" style="fill:none;fill-rule:nonzero;stroke:rgb(212,229,63);stroke-width:0.03px;"/>
        </g>
        <g transform="matrix(1,0,0,1,308.354,307.732)">
            <path d="M0,24.856L1.177,0L9.753,2.515L0,24.856Z" style="fill:none;fill-rule:nonzero;stroke:rgb(212,229,63);stroke-width:0.03px;"/>
        </g>
        <g transform="matrix(1,0,0,1,309.531,307.634)">
            <path d="M0,0.099L-7.619,4.637L-12.992,-4.538L0,0.099Z" style="fill:none;fill-rule:nonzero;stroke:rgb(212,229,63);stroke-width:0.03px;"/>
        </g>
        <g transform="matrix(-0.959588,-0.281409,-0.281409,0.959588,316.563,302.674)">
            <path d="M-3.613,6.833L5.324,6.833L5.115,6.689L-7.248,-1.894L-3.613,6.833Z" style="fill:none;fill-rule:nonzero;stroke:rgb(212,229,63);stroke-width:0.03px;"/>
        </g>
        <g transform="matrix(1,0,0,1,318.107,302.896)">
            <path d="M0,7.352L5.944,0L4.243,3.988L0,7.352Z" style="fill:none;fill-rule:nonzero;stroke:rgb(212,229,63);stroke-width:0.03px;"/>
        </g>
        <g transform="matrix(1,0,0,1,318.107,316.446)">
            <path d="M0,-6.198L4.243,-9.562L0.245,3.364L0,-6.198Z" style="fill:none;fill-rule:nonzero;stroke:rgb(212,229,63);stroke-width:0.03px;"/>
        </g>
        <g transform="matrix(1,0,0,1,322.35,299.012)">
            <path d="M0,7.871L1.701,3.883L15.571,0L0,7.871Z" style="fill:none;fill-rule:nonzero;stroke:rgb(212,229,63);stroke-width:0.03px;"/>
        </g>
        <g transform="matrix(1,0,0,1,318.107,332.589)">
            <path d="M0,-22.341L0.245,-12.779L-9.753,0L0,-22.341Z" style="fill:none;fill-rule:nonzero;stroke:rgb(212,229,63);stroke-width:0.03px;"/>
        </g>
        <g transform="matrix(1,0,0,1,318.352,315.815)">
            <path d="M0,3.995L3.998,-8.931L6.467,12.926L0,3.995Z" style="fill:none;fill-rule:nonzero;stroke:rgb(212,229,63);stroke-width:0.03px;"/>
        </g>
        <g transform="matrix(1,0,0,1,269.777,303.095)">
            <path d="M0,11.011L26.762,0L22.647,7.225L0,11.011Z" style="fill:none;fill-rule:nonzero;stroke:rgb(212,229,63);stroke-width:0.03px;"/>
        </g>
        <g transform="matrix(1,0,0,1,292.424,305.045)">
            <path d="M0,5.275L4.114,-1.95L9.487,7.225L0,5.275Z" style="fill:none;fill-rule:nonzero;stroke:rgb(212,229,63);stroke-width:0.03px;"/>
        </g>
        <g transform="matrix(1,0,0,1,269.777,328.481)">
            <path d="M0,-14.375L22.647,-18.161L1.589,3.786L0,-14.375Z" style="fill:none;fill-rule:nonzero;stroke:rgb(212,229,63);stroke-width:0.03px;"/>
        </g>
        <g transform="matrix(1,0,0,1,324.819,306.883)">
            <path d="M0,21.857L-2.469,0L7.038,0.915L0,21.857Z" style="fill:none;fill-rule:nonzero;stroke:rgb(212,229,63);stroke-width:0.03px;"/>
        </g>
        <g transform="matrix(1,0,0,1,324.819,307.798)">
            <path d="M0,20.942L7.038,0L18.838,13.122L0,20.942Z" style="fill:none;fill-rule:nonzero;stroke:rgb(212,229,63);stroke-width:0.03px;"/>
        </g>
        <g transform="matrix(1,0,0,1,331.857,299.012)">
            <path d="M0,8.786L-9.507,7.871L6.064,0L0,8.786Z" style="fill:none;fill-rule:nonzero;stroke:rgb(212,229,63);stroke-width:0.03px;"/>
        </g>
        <g transform="matrix(1,0,0,1,296.538,307.732)">
            <path d="M0,-4.637L13.233,-0.08L12.992,0L0,-4.637Z" style="fill:none;fill-rule:nonzero;stroke:rgb(212,229,63);stroke-width:0.03px;"/>
        </g>
        <g transform="matrix(1,0,0,1,271.366,343.973)">
            <path d="M0,-11.705L21.059,-33.652L1.863,21.947L0,-11.705Z" style="fill:none;fill-rule:nonzero;stroke:rgb(212,229,63);stroke-width:0.03px;"/>
        </g>
        <g transform="matrix(1,0,0,1,331.857,299.012)">
            <path d="M0,8.786L6.064,0L15.01,8.377L0,8.786Z" style="fill:none;fill-rule:nonzero;stroke:rgb(212,229,63);stroke-width:0.03px;"/>
        </g>
        <g transform="matrix(1,0,0,1,315.616,378.987)">
            <path d="M0,7.641L-4.451,6.446L8.649,0L0,7.641Z" style="fill:none;fill-rule:nonzero;stroke:rgb(212,229,63);stroke-width:0.03px;"/>
        </g>
        <g transform="matrix(1,0,0,1,303.915,349.545)">
            <path d="M0,-22.851L-30.687,16.374L-11.491,-39.225L0,-22.851Z" style="fill:none;fill-rule:nonzero;stroke:rgb(212,229,63);stroke-width:0.03px;"/>
        </g>
        <g transform="matrix(1,0,0,1,273.229,379.079)">
            <path d="M0,-13.16L13.654,0L4.506,-1.547L0,-13.16Z" style="fill:none;fill-rule:nonzero;stroke:rgb(212,229,63);stroke-width:0.03px;"/>
        </g>
        <g transform="matrix(1,0,0,1,308.354,324.826)">
            <path d="M0,7.762L9.998,-5.017L-2.911,12.779L-2.869,12.707L-2.208,11.568L-1.429,10.223L0,7.762Z" style="fill:none;fill-rule:nonzero;stroke:rgb(212,229,63);stroke-width:0.03px;"/>
        </g>
        <g transform="matrix(1,0,0,1,305.443,319.81)">
            <path d="M0,17.796L12.909,0L19.376,8.931L0,17.796Z" style="fill:none;fill-rule:nonzero;stroke:rgb(212,229,63);stroke-width:0.03px;"/>
        </g>
        <g transform="matrix(1,0,0,1,305.624,344.584)">
            <path d="M0,-6.09L2.404,0L0.021,-3.523L-0.129,-3.744L-0.231,-3.897L0,-6.09Z" style="fill:none;fill-rule:nonzero;stroke:rgb(212,229,63);stroke-width:0.03px;"/>
        </g>
        <g transform="matrix(1,0,0,1,301.912,324.745)">
            <path d="M0,-12.474L2.004,1.95L-9.487,-14.424L0,-12.474Z" style="fill:none;fill-rule:nonzero;stroke:rgb(212,229,63);stroke-width:0.03px;"/>
        </g>
        <g transform="matrix(1,0,0,1,305.443,331.113)">
            <path d="M0,6.492L19.376,-2.373L12.94,8.865L0,6.492Z" style="fill:none;fill-rule:nonzero;stroke:rgb(212,229,63);stroke-width:0.03px;"/>
        </g>
        <g transform="matrix(1,0,0,1,318.383,332.293)">
            <path d="M0,7.686L6.436,-3.552L9.849,11.238L0,7.686Z" style="fill:none;fill-rule:nonzero;stroke:rgb(212,229,63);stroke-width:0.03px;"/>
        </g>
        <g transform="matrix(1,0,0,1,328.232,330.732)">
            <path d="M0,12.798L-3.413,-1.992L11.465,14.79L0,12.798Z" style="fill:none;fill-rule:nonzero;stroke:rgb(212,229,63);stroke-width:0.03px;"/>
        </g>
        <g transform="matrix(1,0,0,1,328.232,360.167)">
            <path d="M0,-16.637L11.465,-14.645L11.331,0L0,-16.637Z" style="fill:none;fill-rule:nonzero;stroke:rgb(212,229,63);stroke-width:0.03px;"/>
        </g>
        <g transform="matrix(1,0,0,1,339.697,320.921)">
            <path d="M0,24.602L-14.878,7.82L3.96,0L0,24.602Z" style="fill:none;fill-rule:nonzero;stroke:rgb(212,229,63);stroke-width:0.03px;"/>
        </g>
        <g transform="matrix(1,0,0,1,328.232,364.563)">
            <path d="M0,-21.033L11.331,-4.396L4.117,0L0,-21.033Z" style="fill:none;fill-rule:nonzero;stroke:rgb(212,229,63);stroke-width:0.03px;"/>
        </g>
        <g transform="matrix(1,0,0,1,339.563,345.523)">
            <path d="M0,14.645L0.134,0L13.926,1.184L0,14.645Z" style="fill:none;fill-rule:nonzero;stroke:rgb(212,229,63);stroke-width:0.03px;"/>
        </g>
        <g transform="matrix(1,0,0,1,318.383,364.564)">
            <path d="M0,-24.585L9.849,-21.033L13.966,0L0,-24.585Z" style="fill:none;fill-rule:nonzero;stroke:rgb(212,229,63);stroke-width:0.03px;"/>
        </g>
        <g transform="matrix(1,0,0,1,318.383,383.011)">
            <path d="M0,-43.032L13.966,-18.447L10.98,0L0,-43.032Z" style="fill:none;fill-rule:nonzero;stroke:rgb(212,229,63);stroke-width:0.03px;"/>
        </g>
        <g transform="matrix(1,0,0,1,318.383,383.011)">
            <path d="M0,-43.032L10.98,0L5.882,-4.024L0,-43.032Z" style="fill:none;fill-rule:nonzero;stroke:rgb(212,229,63);stroke-width:0.03px;"/>
        </g>
        <g transform="matrix(1,0,0,1,318.383,378.987)">
            <path d="M0,-39.008L5.882,0L0.475,-20.796L0,-39.008Z" style="fill:none;fill-rule:nonzero;stroke:rgb(212,229,63);stroke-width:0.03px;"/>
        </g>
        <g transform="matrix(0.784997,0.6195,0.6195,-0.784997,328.113,378.552)">
            <path d="M-2.752,-2.725L3.744,-2.725L7.138,-8.491L2.655,-5.877L-2.752,-2.725Z" style="fill:none;fill-rule:nonzero;stroke:rgb(212,229,63);stroke-width:0.03px;"/>
        </g>
        <g transform="matrix(1,0,0,1,329.364,383.183)">
            <path d="M0,-0.173L2.985,-18.62L2.896,18.447L0,-0.173Z" style="fill:none;fill-rule:nonzero;stroke:rgb(212,229,63);stroke-width:0.03px;"/>
        </g>
        <g transform="matrix(1,0,0,1,332.349,397.212)">
            <path d="M0,-32.649L7.214,-37.045L6.379,4.396L0,-32.649Z" style="fill:none;fill-rule:nonzero;stroke:rgb(212,229,63);stroke-width:0.03px;"/>
        </g>
        <g transform="matrix(1,0,0,1,318.383,358.191)">
            <path d="M0,-18.212L0.475,0L-3.176,-3.54L0,-18.212Z" style="fill:none;fill-rule:nonzero;stroke:rgb(212,229,63);stroke-width:0.03px;"/>
        </g>
        <g transform="matrix(1,0,0,1,315.207,385.432)">
            <path d="M0,-30.782L3.65,-27.242L-4.043,0L-1.283,-21.015L-0.843,-24.362L-0.769,-24.925L-0.461,-27.275L-0.431,-27.502L0,-30.782Z" style="fill:none;fill-rule:nonzero;stroke:rgb(212,229,63);stroke-width:0.03px;"/>
        </g>
        <g transform="matrix(1,0,0,1,311.164,358.19)">
            <path d="M0,27.242L7.693,0L13.101,20.796L0,27.242Z" style="fill:none;fill-rule:nonzero;stroke:rgb(212,229,63);stroke-width:0.03px;"/>
        </g>
        <g transform="matrix(1,0,0,1,318.383,352.278)">
            <path d="M0,-12.299L-3.176,2.373L-12.94,-14.672L0,-12.299Z" style="fill:none;fill-rule:nonzero;stroke:rgb(212,229,63);stroke-width:0.03px;"/>
        </g>
        <g transform="matrix(1,0,0,1,305.443,357.93)">
            <path d="M0,-20.325L9.765,-3.28L9.334,0L1.964,-16.048L0.077,-20.157L0,-20.325Z" style="fill:none;fill-rule:nonzero;stroke:rgb(212,229,63);stroke-width:0.03px;"/>
        </g>
        <g transform="matrix(1,0,0,1,339.697,322.105)">
            <path d="M0,23.418L3.96,-1.184L13.792,24.602L0,23.418Z" style="fill:none;fill-rule:nonzero;stroke:rgb(212,229,63);stroke-width:0.03px;"/>
        </g>
        <g transform="matrix(1,0,0,1,338.949,299.091)">
            <path d="M0,0.158L0.586,-0.211L0.922,0.369L0,0.158Z" style="fill:none;fill-rule:nonzero;stroke:rgb(212,229,63);stroke-width:0.03px;"/>
        </g>
        <g transform="matrix(1,0,0,1,332.349,401.63)">
            <path d="M0,-37.067L6.379,-0.022L-0.089,0L0,-37.067Z" style="fill:none;fill-rule:nonzero;stroke:rgb(212,229,63);stroke-width:0.03px;"/>
        </g>
        <g transform="matrix(1,0,0,1,332.26,487.717)">
            <path d="M0,-86.087L6.468,-86.109L2.197,0.022L0,-86.087Z" style="fill:none;fill-rule:nonzero;stroke:rgb(212,229,63);stroke-width:0.03px;"/>
        </g>
        <g transform="matrix(1,0,0,1,329.364,488.211)">
            <path d="M0,-105.201L2.896,-86.581L2.802,0L0,-105.201Z" style="fill:none;fill-rule:nonzero;stroke:rgb(212,229,63);stroke-width:0.03px;"/>
        </g>
        <g transform="matrix(1,0,0,1,329.364,488.211)">
            <path d="M0,-105.201L2.802,0L-0.907,-98.572L0,-105.201Z" style="fill:none;fill-rule:nonzero;stroke:rgb(212,229,63);stroke-width:0.03px;"/>
        </g>
        <g transform="matrix(1,0,0,1,332.165,401.63)">
            <path d="M0,86.581L0.095,0L2.292,86.109L0,86.581Z" style="fill:none;fill-rule:nonzero;stroke:rgb(212,229,63);stroke-width:0.03px;"/>
        </g>
        <g transform="matrix(1,0,0,1,328.457,491.946)">
            <path d="M0,-102.307L3.709,-3.735L2.373,0L0,-102.307Z" style="fill:none;fill-rule:nonzero;stroke:rgb(212,229,63);stroke-width:0.03px;"/>
        </g>
        <g transform="matrix(1,0,0,1,315.616,378.987)">
            <path d="M0,7.641L8.649,0L10.94,5.824L0,7.641Z" style="fill:none;fill-rule:nonzero;stroke:rgb(212,229,63);stroke-width:0.03px;"/>
        </g>
        <g transform="matrix(1,0,0,1,339.87,299.111)">
            <path d="M0,0.349L-0.336,-0.231L1.004,0.58L0,0.349Z" style="fill:none;fill-rule:nonzero;stroke:rgb(212,229,63);stroke-width:0.03px;"/>
        </g>
        <g transform="matrix(1,0,0,1,334.457,406.077)">
            <path d="M0,81.662L4.271,-4.469L7.417,86.131L0,81.662Z" style="fill:none;fill-rule:nonzero;stroke:rgb(212,229,63);stroke-width:0.03px;"/>
        </g>
        <g transform="matrix(1,0,0,1,332.165,500.649)">
            <path d="M0,-12.437L2.292,-12.909L5.943,0.472L0,-12.437Z" style="fill:none;fill-rule:nonzero;stroke:rgb(212,229,63);stroke-width:0.03px;"/>
        </g>
        <g transform="matrix(1,0,0,1,334.457,501.12)">
            <path d="M0,-13.381L7.417,-8.912L3.651,0L0,-13.381Z" style="fill:none;fill-rule:nonzero;stroke:rgb(212,229,63);stroke-width:0.03px;"/>
        </g>
        <g transform="matrix(1,0,0,1,341.874,401.608)">
            <path d="M0,90.6L-3.146,0L3.614,49.662L0,90.6Z" style="fill:none;fill-rule:nonzero;stroke:rgb(212,229,63);stroke-width:0.03px;"/>
        </g>
        <g transform="matrix(1,0,0,1,330.83,497.385)">
            <path d="M0,-5.439L1.336,-9.174L7.279,3.735L0,-5.439Z" style="fill:none;fill-rule:nonzero;stroke:rgb(212,229,63);stroke-width:0.03px;"/>
        </g>
        <g transform="matrix(1,0,0,1,338.728,360.167)">
            <path d="M0,41.441L0.835,0L6.704,36.619L0,41.441Z" style="fill:none;fill-rule:nonzero;stroke:rgb(212,229,63);stroke-width:0.03px;"/>
        </g>
        <g transform="matrix(1,0,0,1,286.883,383.913)">
            <path d="M0,-4.833L14.692,-7.207L11.892,-2.406L10.049,0.752L9.831,1.123L9.102,2.374L0,-4.833Z" style="fill:none;fill-rule:nonzero;stroke:rgb(212,229,63);stroke-width:0.03px;"/>
        </g>
        <g transform="matrix(0.783993,0.620769,0.620769,-0.783993,288.635,379.705)">
            <path d="M-1.762,-0.597L9.848,-0.597L8.251,-0.958L-9.894,-5.063L-1.762,-0.597Z" style="fill:none;fill-rule:nonzero;stroke:rgb(212,229,63);stroke-width:0.03px;"/>
        </g>
        <g transform="matrix(1,0,0,1,273.229,364.493)">
            <path d="M0,1.427L4.506,13.04L-14.074,-11.613L0,1.427Z" style="fill:none;fill-rule:nonzero;stroke:rgb(212,229,63);stroke-width:0.03px;"/>
        </g>
        <g transform="matrix(1,0,0,1,277.735,352.879)">
            <path d="M0,24.653L-11.153,12.549L-18.58,0L0,24.653Z" style="fill:none;fill-rule:nonzero;stroke:rgb(212,229,63);stroke-width:0.03px;"/>
        </g>
        <g transform="matrix(1,0,0,1,259.155,326.163)">
            <path d="M0,26.716L-1.657,20.013L-5.838,0L0,26.716Z" style="fill:none;fill-rule:nonzero;stroke:rgb(212,229,63);stroke-width:0.03px;"/>
        </g>
        <g transform="matrix(1,0,0,1,273.229,332.267)">
            <path d="M0,33.652L-14.074,20.612L-1.863,0L0,33.652Z" style="fill:none;fill-rule:nonzero;stroke:rgb(212,229,63);stroke-width:0.03px;"/>
        </g>
        <g transform="matrix(1,0,0,1,271.366,346.776)">
            <path d="M0,-14.508L-12.211,6.104L-18.049,-20.612L0,-14.508Z" style="fill:none;fill-rule:nonzero;stroke:rgb(212,229,63);stroke-width:0.03px;"/>
        </g>
        <g transform="matrix(1,0,0,1,298.775,388.884)">
            <path d="M0,-7.378L-1.65,0L-1.843,-4.22L0,-7.378Z" style="fill:none;fill-rule:nonzero;stroke:rgb(212,229,63);stroke-width:0.03px;"/>
        </g>
        <g transform="matrix(1,0,0,1,296.932,388.885)">
            <path d="M0,-4.22L0.192,0L-0.218,-3.849L0,-4.22Z" style="fill:none;fill-rule:nonzero;stroke:rgb(212,229,63);stroke-width:0.03px;"/>
        </g>
        <g transform="matrix(1,0,0,1,331.857,320.511)">
            <path d="M0,-12.713L15.01,-13.122L11.8,0.409L0,-12.713Z" style="fill:none;fill-rule:nonzero;stroke:rgb(212,229,63);stroke-width:0.03px;"/>
        </g>
        <g transform="matrix(1,0,0,1,343.657,307.39)">
            <path d="M0,13.531L3.21,0L15.241,12.729L0,13.531Z" style="fill:none;fill-rule:nonzero;stroke:rgb(212,229,63);stroke-width:0.03px;"/>
        </g>
        <g transform="matrix(1,0,0,1,346.867,299.012)">
            <path d="M0,8.377L-8.945,0L9.159,7.476L0,8.377Z" style="fill:none;fill-rule:nonzero;stroke:rgb(212,229,63);stroke-width:0.03px;"/>
        </g>
        <g transform="matrix(0.105922,0.994374,0.994374,-0.105922,297.826,387.648)">
            <path d="M-2.716,-0.828L1.155,-0.828L-2.41,-3.078L-1.549,-1.686L-2.716,-0.828Z" style="fill:none;fill-rule:nonzero;stroke:rgb(212,229,63);stroke-width:0.03px;"/>
        </g>
        <g transform="matrix(1,0,0,1,366.459,358.89)">
            <path d="M0,0.713L-0.935,0.761L-0.718,-0.048L0,0.713Z" style="fill:none;fill-rule:nonzero;stroke:rgb(212,229,63);stroke-width:0.03px;"/>
        </g>
        <g transform="matrix(1,0,0,1,377.017,364.96)">
            <path d="M0,6.608L-5.502,0L-0.49,5.314L0,6.608Z" style="fill:none;fill-rule:nonzero;stroke:rgb(212,229,63);stroke-width:0.03px;"/>
        </g>
        <g transform="matrix(1,0,0,1,408.25,327.784)">
            <path d="M0,-8.495L-3.056,15.171L-25.787,-23.666L0,-8.495Z" style="fill:none;fill-rule:nonzero;stroke:rgb(212,229,63);stroke-width:0.03px;"/>
        </g>
        <g transform="matrix(1,0,0,1,408.25,304.118)">
            <path d="M0,15.171L-25.787,0L-5.047,5.966L0,15.171Z" style="fill:none;fill-rule:nonzero;stroke:rgb(212,229,63);stroke-width:0.03px;"/>
        </g>
        <g transform="matrix(1,0,0,1,382.463,342.954)">
            <path d="M0,-38.837L22.731,0L-0.686,-17.582L0,-38.837Z" style="fill:none;fill-rule:nonzero;stroke:rgb(212,229,63);stroke-width:0.03px;"/>
        </g>
        <g transform="matrix(1,0,0,1,363.21,306.321)">
            <path d="M0,0.352L19.253,-2.204L4.291,2.556L0,0.352Z" style="fill:none;fill-rule:nonzero;stroke:rgb(212,229,63);stroke-width:0.03px;"/>
        </g>
        <g transform="matrix(1,0,0,1,367.501,307.461)">
            <path d="M0,1.417L14.962,-3.343L9.747,4.76L0,1.417Z" style="fill:none;fill-rule:nonzero;stroke:rgb(212,229,63);stroke-width:0.03px;"/>
        </g>
        <g transform="matrix(1,0,0,1,377.249,317.269)">
            <path d="M0,-5.049L5.215,-13.152L4.529,8.103L0,-5.049Z" style="fill:none;fill-rule:nonzero;stroke:rgb(212,229,63);stroke-width:0.03px;"/>
        </g>
        <g transform="matrix(1,0,0,1,367.501,332.674)">
            <path d="M0,-23.796L9.747,-20.453L2.662,0L0,-23.796Z" style="fill:none;fill-rule:nonzero;stroke:rgb(212,229,63);stroke-width:0.03px;"/>
        </g>
        <g transform="matrix(0.111174,0.993801,0.993801,-0.111174,372.938,321.035)">
            <path d="M-12.687,-4.052L11.257,-4.052L-19.414,-14.185L-15.354,-8.071L-12.687,-4.052Z" style="fill:none;fill-rule:nonzero;stroke:rgb(212,229,63);stroke-width:0.03px;"/>
        </g>
        <g transform="matrix(1,0,0,1,356.682,332.673)">
            <path d="M0,-29.355L13.481,0L2.216,-12.555L0,-29.355Z" style="fill:none;fill-rule:nonzero;stroke:rgb(212,229,63);stroke-width:0.03px;"/>
        </g>
        <g transform="matrix(1,0,0,1,356.682,320.118)">
            <path d="M0,-16.8L2.216,0L-0.656,-13.63L0,-16.8Z" style="fill:none;fill-rule:nonzero;stroke:rgb(212,229,63);stroke-width:0.03px;"/>
        </g>
        <g transform="matrix(1,0,0,1,356.682,302.182)">
            <path d="M0,1.136L-0.656,4.306L-18.761,-3.17L-17.738,-2.935L-16.812,-2.723L-15.808,-2.492L0,1.136Z" style="fill:none;fill-rule:nonzero;stroke:rgb(212,229,63);stroke-width:0.03px;"/>
        </g>
        <g transform="matrix(1,0,0,1,356.026,320.118)">
            <path d="M0,-13.63L2.872,0L-9.159,-12.729L0,-13.63Z" style="fill:none;fill-rule:nonzero;stroke:rgb(212,229,63);stroke-width:0.03px;"/>
        </g>
        <g transform="matrix(1,0,0,1,358.898,336.94)">
            <path d="M0,-16.822L11.266,-4.267L13.134,-1.7L13.271,-1.512L14.372,0L0,-16.822Z" style="fill:none;fill-rule:nonzero;stroke:rgb(212,229,63);stroke-width:0.03px;"/>
        </g>
        <g transform="matrix(1,0,0,1,358.898,336.94)">
            <path d="M0,-16.822L14.372,0L2.06,-5.192L0,-16.822Z" style="fill:none;fill-rule:nonzero;stroke:rgb(212,229,63);stroke-width:0.03px;"/>
        </g>
        <g transform="matrix(0.325594,0.94551,0.94551,-0.325594,387.988,320.371)">
            <path d="M-11.204,-7.501L2.706,-7.501L9.086,-19.86L8.863,-19.928L-11.204,-7.501Z" style="fill:none;fill-rule:nonzero;stroke:rgb(212,229,63);stroke-width:0.03px;"/>
        </g>
        <g transform="matrix(1,0,0,1,377.249,335.24)">
            <path d="M0,-23.02L-5.217,0L-7.085,-2.567L0,-23.02Z" style="fill:none;fill-rule:nonzero;stroke:rgb(212,229,63);stroke-width:0.03px;"/>
        </g>
        <g transform="matrix(1,0,0,1,372.168,359.649)">
            <path d="M0,-24.221L9.609,-34.277L28.138,10.056L1.002,-22.491L1.102,-22.709L0,-24.221Z" style="fill:none;fill-rule:nonzero;stroke:rgb(212,229,63);stroke-width:0.03px;"/>
        </g>
        <g transform="matrix(1,0,0,1,358.898,331.748)">
            <path d="M0,-11.63L2.06,0L-15.241,-10.828L0,-11.63Z" style="fill:none;fill-rule:nonzero;stroke:rgb(212,229,63);stroke-width:0.03px;"/>
        </g>
        <g transform="matrix(1,0,0,1,360.957,347.822)">
            <path d="M0,-16.073L12.313,-10.881L1.869,0L0,-16.073Z" style="fill:none;fill-rule:nonzero;stroke:rgb(212,229,63);stroke-width:0.03px;"/>
        </g>
        <g transform="matrix(1,0,0,1,360.957,347.822)">
            <path d="M0,-16.073L1.869,0L-7.469,-1.115L0,-16.073Z" style="fill:none;fill-rule:nonzero;stroke:rgb(212,229,63);stroke-width:0.03px;"/>
        </g>
        <g transform="matrix(1,0,0,1,360.957,335.879)">
            <path d="M0,-4.13L-7.469,10.828L-17.301,-14.958L0,-4.13Z" style="fill:none;fill-rule:nonzero;stroke:rgb(212,229,63);stroke-width:0.03px;"/>
        </g>
        <g transform="matrix(1,0,0,1,353.489,363.595)">
            <path d="M0,-16.888L9.338,-15.773L4.161,0L0,-16.888Z" style="fill:none;fill-rule:nonzero;stroke:rgb(212,229,63);stroke-width:0.03px;"/>
        </g>
        <g transform="matrix(1,0,0,1,357.65,347.963)">
            <path d="M0,15.631L5.177,-0.142L5.909,10.524L5.914,10.607L6.031,12.304L6.118,13.573L6.269,15.773L0,15.631Z" style="fill:none;fill-rule:nonzero;stroke:rgb(212,229,63);stroke-width:0.03px;"/>
        </g>
        <g transform="matrix(0.999744,0.0226453,0.0226453,-0.999744,357.863,363.498)">
            <path d="M-0.211,-0.101L6.059,-0.101L6.256,-1.368L8.946,-18.651L-0.211,-0.101Z" style="fill:none;fill-rule:nonzero;stroke:rgb(212,229,63);stroke-width:0.03px;"/>
        </g>
        <g transform="matrix(1,0,0,1,362.827,347.606)">
            <path d="M0,0.215L10.443,-10.666L10.344,-10.448L9.826,-9.298L9.498,-8.571L0.732,10.881L0,0.215Z" style="fill:none;fill-rule:nonzero;stroke:rgb(212,229,63);stroke-width:0.03px;"/>
        </g>
        <g transform="matrix(1,0,0,1,357.65,383.15)">
            <path d="M0,-19.556L8.735,-0.804L-5.784,0L0,-19.556Z" style="fill:none;fill-rule:nonzero;stroke:rgb(212,229,63);stroke-width:0.03px;"/>
        </g>
        <g transform="matrix(1,0,0,1,408.25,315.289)">
            <path d="M0,4L-5.047,-5.205L13.36,9.205L0,4Z" style="fill:none;fill-rule:nonzero;stroke:rgb(212,229,63);stroke-width:0.03px;"/>
        </g>
        <g transform="matrix(1,0,0,1,408.25,333.014)">
            <path d="M0,-13.725L13.36,-8.52L16.433,0L0,-13.725Z" style="fill:none;fill-rule:nonzero;stroke:rgb(212,229,63);stroke-width:0.03px;"/>
        </g>
        <g transform="matrix(1,0,0,1,366.385,385.742)">
            <path d="M0,-3.396L-3.615,0L-3.463,-2.927L0,-3.396Z" style="fill:none;fill-rule:nonzero;stroke:rgb(212,229,63);stroke-width:0.03px;"/>
        </g>
        <g transform="matrix(1,0,0,1,362.922,385.742)">
            <path d="M0,-2.927L-0.152,0L-1.694,-2.698L0,-2.927Z" style="fill:none;fill-rule:nonzero;stroke:rgb(212,229,63);stroke-width:0.03px;"/>
        </g>
        <g transform="matrix(1,0,0,1,361.228,385.742)">
            <path d="M0,-2.698L1.542,0L-4.021,-2.153L0,-2.698Z" style="fill:none;fill-rule:nonzero;stroke:rgb(212,229,63);stroke-width:0.03px;"/>
        </g>
        <g transform="matrix(1,0,0,1,339.563,352.313)">
            <path d="M0,7.855L13.926,-5.606L7.303,13.461L0,7.855Z" style="fill:none;fill-rule:nonzero;stroke:rgb(212,229,63);stroke-width:0.03px;"/>
        </g>
        <g transform="matrix(1,0,0,1,339.563,396.787)">
            <path d="M0,-36.619L7.303,-31.013L5.869,0L0,-36.619Z" style="fill:none;fill-rule:nonzero;stroke:rgb(212,229,63);stroke-width:0.03px;"/>
        </g>
        <g transform="matrix(1,0,0,1,346.866,346.707)">
            <path d="M0,19.067L6.623,0L10.784,16.888L0,19.067Z" style="fill:none;fill-rule:nonzero;stroke:rgb(212,229,63);stroke-width:0.03px;"/>
        </g>
        <g transform="matrix(0.640372,0.768065,0.768065,-0.640372,395.136,334.98)">
            <path d="M-12.393,-18.266L29.983,-18.266L29.257,-38.166L-11.841,-19.4L-12.393,-18.266Z" style="fill:none;fill-rule:nonzero;stroke:rgb(212,229,63);stroke-width:0.03px;"/>
        </g>
        <g transform="matrix(1,0,0,1,372.653,381.892)">
            <path d="M0,-43.583L11.904,0L3.062,-13.76L1.769,-24.864L0.167,-38.607L-0.152,-41.348L-0.229,-41.997L-0.256,-42.239L-0.328,-42.856L0,-43.583Z" style="fill:none;fill-rule:nonzero;stroke:rgb(212,229,63);stroke-width:0.03px;"/>
        </g>
        <g transform="matrix(1,0,0,1,346.866,381.854)">
            <path d="M0,-16.081L10.784,-18.26L3.03,2.179L0,-16.081Z" style="fill:none;fill-rule:nonzero;stroke:rgb(212,229,63);stroke-width:0.03px;"/>
        </g>
        <g transform="matrix(1,0,0,1,338.728,446.448)">
            <path d="M0,-44.84L6.704,-49.662L6.761,4.822L0,-44.84Z" style="fill:none;fill-rule:nonzero;stroke:rgb(212,229,63);stroke-width:0.03px;"/>
        </g>
        <g transform="matrix(1,0,0,1,351.866,382.785)">
            <path d="M0,0.365L14.52,-0.439L11.057,0.03L9.362,0.259L5.342,0.804L0,0.365Z" style="fill:none;fill-rule:nonzero;stroke:rgb(212,229,63);stroke-width:0.03px;"/>
        </g>
        <g transform="matrix(0.99664,0.0819029,0.0819029,-0.99664,351.985,382.964)">
            <path d="M-0.103,-0.196L5.257,-0.196L4.058,-0.765L-0.555,-2.957L-0.103,-0.196Z" style="fill:none;fill-rule:nonzero;stroke:rgb(212,229,63);stroke-width:0.03px;"/>
        </g>
        <g transform="matrix(1,0,0,1,346.866,396.786)">
            <path d="M0,-31.013L3.03,-12.753L-1.434,0L0,-31.013Z" style="fill:none;fill-rule:nonzero;stroke:rgb(212,229,63);stroke-width:0.03px;"/>
        </g>
        <g transform="matrix(0.33038,-0.943848,-0.943848,-0.33038,336.801,406.077)">
            <path d="M11.621,-5.077L25.132,-5.077L17.38,-7.503L-19.712,-19.112L11.621,-5.077Z" style="fill:none;fill-rule:nonzero;stroke:rgb(212,229,63);stroke-width:0.03px;"/>
        </g>
        <g transform="matrix(1,0,0,1,348.327,493.142)">
            <path d="M0,-62.145L-0.795,0L-2.838,-41.871L0,-62.145Z" style="fill:none;fill-rule:nonzero;stroke:rgb(212,229,63);stroke-width:0.03px;"/>
        </g>
        <g transform="matrix(1,0,0,1,345.489,396.787)">
            <path d="M0,54.484L-0.057,0L2.838,34.21L0,54.484Z" style="fill:none;fill-rule:nonzero;stroke:rgb(212,229,63);stroke-width:0.03px;"/>
        </g>
        <g transform="matrix(1,0,0,1,362.77,383.589)">
            <path d="M0,2.153L-6.804,0.469L-5.562,0L0,2.153Z" style="fill:none;fill-rule:nonzero;stroke:rgb(212,229,63);stroke-width:0.03px;"/>
        </g>
        <g transform="matrix(1,0,0,1,357.65,384.033)">
            <path d="M0,-20.439L-5.784,-0.883L-7.754,0L0,-20.439Z" style="fill:none;fill-rule:nonzero;stroke:rgb(212,229,63);stroke-width:0.03px;"/>
        </g>
        <g transform="matrix(0.912527,-0.409016,-0.409016,-0.912527,348.491,384.697)">
            <path d="M1.554,0.031L3.713,0.031L1.985,-2.17L-2.014,-7.266L1.554,0.031Z" style="fill:none;fill-rule:nonzero;stroke:rgb(212,229,63);stroke-width:0.03px;"/>
        </g>
        <g transform="matrix(1,0,0,1,341.874,452.203)">
            <path d="M0,40.005L3.614,-0.933L5.657,40.938L0,40.005Z" style="fill:none;fill-rule:nonzero;stroke:rgb(212,229,63);stroke-width:0.03px;"/>
        </g>
        <g transform="matrix(1,0,0,1,408.016,386.282)">
            <path d="M0,-13.325L-25.425,0L-23.459,-4.39L0,-13.325Z" style="fill:none;fill-rule:nonzero;stroke:rgb(212,229,63);stroke-width:0.03px;"/>
        </g>
        <g transform="matrix(1,0,0,1,400.306,381.892)">
            <path d="M0,-12.186L7.71,-8.935L-15.749,0L0,-12.186Z" style="fill:none;fill-rule:nonzero;stroke:rgb(212,229,63);stroke-width:0.03px;"/>
        </g>
        <g transform="matrix(1,0,0,1,422.157,341.647)">
            <path d="M0,2.184L-2.953,10.817L2.526,-8.633L0,2.184Z" style="fill:none;fill-rule:nonzero;stroke:rgb(212,229,63);stroke-width:0.03px;"/>
        </g>
        <g transform="matrix(1,0,0,1,384.557,372.522)">
            <path d="M0,9.37L-1.966,13.76L-7.54,-0.953L-8.03,-2.247L-8.843,-4.39L0,9.37Z" style="fill:none;fill-rule:nonzero;stroke:rgb(212,229,63);stroke-width:0.03px;"/>
        </g>
        <g transform="matrix(1,0,0,1,365.742,365.007)">
            <path d="M0,-6.166L-0.217,-5.357L-1.655,0L-1.823,-1.271L-1.974,-3.471L0,-6.166Z" style="fill:none;fill-rule:nonzero;stroke:rgb(212,229,63);stroke-width:0.03px;"/>
        </g>
        <g transform="matrix(1,0,0,1,365.742,361.536)">
            <path d="M0,-2.695L-1.974,0L-2.061,-1.269L0,-2.695Z" style="fill:none;fill-rule:nonzero;stroke:rgb(212,229,63);stroke-width:0.03px;"/>
        </g>
        <g transform="matrix(1,0,0,1,365.742,341.078)">
            <path d="M0,17.763L-2.061,19.189L-2.178,17.492L6.655,-1.426L6.683,-1.184L6.442,-0.501L5.972,0.832L5.553,2.022L0,17.763Z" style="fill:none;fill-rule:nonzero;stroke:rgb(212,229,63);stroke-width:0.03px;"/>
        </g>
        <g transform="matrix(-0.423066,0.906099,0.906099,0.423066,374.4,356.678)">
            <path d="M-14.58,-9.018L6.299,-9.018L6.226,-9.057L-15.108,-9.344L-14.58,-9.018Z" style="fill:none;fill-rule:nonzero;stroke:rgb(212,229,63);stroke-width:0.03px;"/>
        </g>
        <g transform="matrix(1,0,0,1,366.459,353.773)">
            <path d="M0,5.83L-0.718,5.069L4.835,-10.672L7.962,3.255L9.255,14.359L10.067,16.502L5.056,11.188L0,5.83Z" style="fill:none;fill-rule:nonzero;stroke:rgb(212,229,63);stroke-width:0.03px;"/>
        </g>
        <g transform="matrix(-0.219074,-0.975708,-0.975708,0.219074,379.89,346.288)">
            <path d="M-9.281,7.689L4.993,7.689L6.062,7.019L4.479,6.241L-9.281,7.689Z" style="fill:none;fill-rule:nonzero;stroke:rgb(212,229,63);stroke-width:0.03px;"/>
        </g>
        <g transform="matrix(-0.627043,-0.778985,-0.778985,0.627043,372.988,340.624)">
            <path d="M-1.967,1.799L-0.204,1.799L0.54,0.597L0.368,0.329L-1.967,1.799Z" style="fill:none;fill-rule:nonzero;stroke:rgb(212,229,63);stroke-width:0.03px;"/>
        </g>
        <g transform="matrix(1,0,0,1,372.5,339.928)">
            <path d="M0,0.615L-0.316,0.649L-0.076,-0.034L0,0.615Z" style="fill:none;fill-rule:nonzero;stroke:rgb(212,229,63);stroke-width:0.03px;"/>
        </g>
        <g transform="matrix(-0.479182,0.877715,0.877715,0.479182,419.922,372.53)">
            <path d="M-17.268,-10.246L6.08,-10.246" style="fill:none;fill-rule:nonzero;stroke:rgb(212,229,63);stroke-width:0.03px;"/>
        </g>
        <g transform="matrix(1,0,0,1,405.195,377.246)">
            <path d="M0,-34.291L14.009,-24.782M-39.453,-18.404L-41.427,-15.709M-20.638,4.646L-32.542,-38.937M14.009,-24.782L-4.889,-7.54" style="fill:none;fill-rule:nonzero;stroke:rgb(212,229,63);stroke-width:0.03px;"/>
        </g>
        <g transform="matrix(-0.763159,0.646211,0.646211,0.763159,341.803,503.22)">
            <path d="M-10.885,-3.99L1.462,-3.99" style="fill:none;fill-rule:nonzero;stroke:rgb(212,229,63);stroke-width:0.03px;"/>
        </g>
        <g transform="matrix(1,0,0,1,405.195,346.04)">
            <path d="M0,-3.085L-4.889,23.666M14.009,6.424L3.056,-26.751" style="fill:none;fill-rule:nonzero;stroke:rgb(212,229,63);stroke-width:0.03px;"/>
        </g>
        <g transform="matrix(-0.73301,-0.680217,-0.680217,0.73301,302.594,369.993)">
            <path d="M-0.853,0.335L0.131,0.335" style="fill:none;fill-rule:nonzero;stroke:rgb(212,229,63);stroke-width:0.03px;"/>
        </g>
        <g transform="matrix(1,0,0,1,314.747,343.19)">
            <path d="M0,14.967L-6.719,1.394M-1.683,16.427L-0.308,17.317M-9.859,2.259L-8.88,1.037M-8.88,1.037L-9.252,-2.35" style="fill:none;fill-rule:nonzero;stroke:rgb(212,229,63);stroke-width:0.03px;"/>
        </g>
        <g transform="matrix(0.317647,0.948209,0.948209,-0.317647,316.873,347.326)">
            <path d="M-5.409,-7.517L10.445,-7.517" style="fill:none;fill-rule:nonzero;stroke:rgb(212,229,63);stroke-width:0.03px;"/>
        </g>
        <g transform="matrix(1,0,0,1,308.354,355.176)">
            <path d="M0,-22.588L-4.438,-28.482M6.854,-0.526L-2.911,-17.571M4.71,4.441L6.011,5.894M-0.947,-13.294L-0.326,-10.592M-4.438,-28.482L-2.208,-18.782M-1.429,-20.127L-4.438,-28.482" style="fill:none;fill-rule:nonzero;stroke:rgb(212,229,63);stroke-width:0.03px;"/>
        </g>
        <g transform="matrix(-0.668605,0.743618,0.743618,0.668605,308.826,372.708)">
            <path d="M-12.568,-5.601L2.496,-5.601" style="fill:none;fill-rule:nonzero;stroke:rgb(212,229,63);stroke-width:0.03px;"/>
        </g>
        <g transform="matrix(1,0,0,1,305.867,370.82)">
            <path d="M0,-26.592L-2.875,0M7.197,-11.202L0,-26.592" style="fill:none;fill-rule:nonzero;stroke:rgb(212,229,63);stroke-width:0.03px;"/>
        </g>
        <g transform="matrix(1,0,0,1,281.45,326.163)">
            <path d="M0,-18.048L-11.673,-12.057M-28.133,0L-11.673,-12.057" style="fill:none;fill-rule:nonzero;stroke:rgb(212,229,63);stroke-width:0.03px;"/>
        </g>
        <g transform="matrix(1,0,0,1,324.819,357.165)">
            <path d="M0,-28.425L-2.469,-50.282M7.038,-49.367L-2.469,-50.282M0,-28.425L7.038,-49.367M-32.395,-46.845L-55.042,-43.059M-55.042,-43.059L-28.28,-54.07M-28.28,-54.07L-32.395,-46.845M-0.554,21.821L4.545,25.845M-0.554,21.821L-6.436,-17.187M-6.436,-17.187L4.545,25.845M-6.712,-46.918L-16.465,-24.577M-6.712,-46.918L-15.288,-49.433M-2.469,-50.282L-6.467,-37.356M-6.712,-46.918L-6.467,-37.356M-2.469,-50.282L-0.768,-54.27M-6.712,-46.918L-2.469,-50.282M-0.768,-54.27L-6.712,-46.918M-22.907,-44.895L-15.288,-49.433M-16.465,-24.577L-15.288,-49.433M-22.907,-44.895L-16.465,-24.577M-20.903,-30.471L-37.936,21.914M-19.334,-19.632L-20.903,-30.471M-19.195,-18.671L-19.299,-19.392M-37.936,21.914L-19.195,-18.671M0,-28.425L3.413,-13.635M14.878,-11.643L0,-28.425M14.878,-11.643L3.413,-13.635" style="fill:none;fill-rule:nonzero;stroke:rgb(212,229,63);stroke-width:0.03px;"/>
        </g>
        <g transform="matrix(-0.945507,-0.325601,-0.325601,0.945507,297.641,301.065)">
            <path d="M-13.614,2.278L0.381,2.279" style="fill:none;fill-rule:nonzero;stroke:rgb(212,229,63);stroke-width:0.03px;"/>
        </g>
        <g transform="matrix(1,0,0,1,271.366,330.996)">
            <path d="M0,1.272L21.059,-20.675M-1.589,-16.889L0,1.272M25.173,-27.9L30.546,-18.725M56.866,12.535L47.018,8.983M53.453,-2.255L47.018,8.983M68.197,29.172L68.331,14.527M68.197,29.172L56.866,12.535M25.173,-27.9L38.165,-23.263" style="fill:none;fill-rule:nonzero;stroke:rgb(212,229,63);stroke-width:0.03px;"/>
        </g>
        <g transform="matrix(0.0699483,0.997551,0.997551,-0.0699483,307.327,342.423)">
            <path d="M-1.476,-1.583L1.698,-1.583" style="fill:none;fill-rule:nonzero;stroke:rgb(212,229,63);stroke-width:0.03px;"/>
        </g>
        <g transform="matrix(1,0,0,1,337.921,307.798)">
            <path d="M0,-8.786L-15.571,-0.915M-6.064,0L0,-8.786" style="fill:none;fill-rule:nonzero;stroke:rgb(212,229,63);stroke-width:0.03px;"/>
        </g>
        <g transform="matrix(-0.965798,-0.259296,-0.259296,0.965798,311.396,384.876)">
            <path d="M-4.53,0.598L0.079,0.598" style="fill:none;fill-rule:nonzero;stroke:rgb(212,229,63);stroke-width:0.03px;"/>
        </g>
        <g transform="matrix(1,0,0,1,308.028,358.236)">
            <path d="M0,-13.651L-2.404,-19.741M10.324,-38.426L0.326,-25.647M-2.585,-20.63L10.324,-38.426M10.355,-18.257L24.321,6.328M21.336,24.775L24.321,6.328M-34.799,7.684L-21.145,20.844M-4.112,-31.541L-34.799,7.684" style="fill:none;fill-rule:nonzero;stroke:rgb(212,229,63);stroke-width:0.03px;"/>
        </g>
        <g transform="matrix(1,0,0,1,281.45,299.012)">
            <path d="M0,9.103L15.089,4.083M42.602,3.883L56.472,0" style="fill:none;fill-rule:nonzero;stroke:rgb(212,229,63);stroke-width:0.03px;"/>
        </g>
        <g transform="matrix(1,0,0,1,311.164,310.32)">
            <path d="M0,75.112L13.101,68.666M13.101,68.666L7.693,47.87M-18.74,0L-7.249,16.374M32.492,10.6L13.654,18.42M28.532,35.202L32.492,10.6M-9.253,1.95L-18.74,0M-5.722,27.285L13.654,18.42M13.654,18.42L7.187,9.489M7.219,29.658L4.043,44.33M7.693,47.87L7.219,29.658M21.185,54.243L17.067,33.21M21.185,54.243L28.398,49.847M4.043,44.33L7.693,47.87M0,75.112L7.693,47.87M-7.249,16.374L-9.253,1.95" style="fill:none;fill-rule:nonzero;stroke:rgb(212,229,63);stroke-width:0.03px;"/>
        </g>
        <g transform="matrix(0.848885,-0.528578,-0.528578,-0.848885,339.086,299.376)">
            <path d="M-0.053,0.184L0.644,0.184" style="fill:none;fill-rule:nonzero;stroke:rgb(212,229,63);stroke-width:0.03px;"/>
        </g>
        <g transform="matrix(1,0,0,1,315.616,400.464)">
            <path d="M0,-13.836L8.649,-21.477M12.841,-10.824L16.55,87.748M13.748,-17.453L12.841,-10.824M16.55,87.748L16.645,1.167M16.55,87.748L13.748,-17.453M16.645,1.167L13.748,-17.453M16.645,1.167L23.112,1.145M16.733,-35.9L16.645,1.167M23.112,1.145L16.733,-35.9M23.333,-101.215L23.919,-101.584" style="fill:none;fill-rule:nonzero;stroke:rgb(212,229,63);stroke-width:0.03px;"/>
        </g>
        <g transform="matrix(-0.986486,0.163843,0.163843,0.986486,315.839,387.512)">
            <path d="M-11.015,-0.909L0.075,-0.909" style="fill:none;fill-rule:nonzero;stroke:rgb(212,229,63);stroke-width:0.03px;"/>
        </g>
        <g transform="matrix(1,0,0,1,330.83,299.141)">
            <path d="M0,192.805L1.336,189.07M11.045,193.067L7.898,102.467M3.628,188.598L11.045,193.067M1.336,189.07L3.628,188.598M3.628,188.598L7.898,102.467M1.431,102.489L3.628,188.598M9.041,0.318L8.705,-0.262" style="fill:none;fill-rule:nonzero;stroke:rgb(212,229,63);stroke-width:0.03px;"/>
        </g>
        <g transform="matrix(0.0231887,0.999731,0.999731,-0.0231887,380.755,438.42)">
            <path d="M-49.981,-51.154L52.354,-51.154" style="fill:none;fill-rule:nonzero;stroke:rgb(212,229,63);stroke-width:0.03px;"/>
        </g>
        <g transform="matrix(0.020145,-0.999797,-0.999797,-0.020145,359.853,381.723)">
            <path d="M-20.307,20.72L21.142,20.72" style="fill:none;fill-rule:nonzero;stroke:rgb(212,229,63);stroke-width:0.03px;"/>
        </g>
        <g transform="matrix(0.176358,0.984326,0.984326,-0.176358,315.78,361.171)">
            <path d="M-2.008,-2.4L2.868,-2.4" style="fill:none;fill-rule:nonzero;stroke:rgb(212,229,63);stroke-width:0.03px;"/>
        </g>
        <g transform="matrix(1,0,0,1,273.229,357.973)">
            <path d="M0,7.947L4.506,19.56M13.654,21.107L4.506,19.56M32.214,-20.367L45.154,-17.994M28.347,18.733L13.654,21.107M13.654,21.107L22.756,28.314" style="fill:none;fill-rule:nonzero;stroke:rgb(212,229,63);stroke-width:0.03px;"/>
        </g>
        <g transform="matrix(1,0,0,1,266.582,364.983)">
            <path d="M0,0.445L-7.427,-12.104M11.153,12.549L0,0.445" style="fill:none;fill-rule:nonzero;stroke:rgb(212,229,63);stroke-width:0.03px;"/>
        </g>
        <g transform="matrix(-0.601869,-0.798595,-0.798595,0.601869,272.697,350.368)">
            <path d="M-24.725,12.327L6.145,12.327" style="fill:none;fill-rule:nonzero;stroke:rgb(212,229,63);stroke-width:0.03px;"/>
        </g>
        <g transform="matrix(-0.239979,-0.970778,-0.970778,0.239979,261.381,347.919)">
            <path d="M-4.281,3.352L2.624,3.352" style="fill:none;fill-rule:nonzero;stroke:rgb(212,229,63);stroke-width:0.03px;"/>
        </g>
        <g transform="matrix(1,0,0,1,271.366,343.973)">
            <path d="M0,-11.705L-18.049,-17.809M-12.211,8.907L-18.049,-17.809M-12.211,8.907L0,-11.705M1.863,21.947L0,-11.705M21.059,-33.652L1.863,21.947M1.863,21.947L-12.211,8.907" style="fill:none;fill-rule:nonzero;stroke:rgb(212,229,63);stroke-width:0.03px;"/>
        </g>
        <g transform="matrix(0.218247,-0.975894,-0.975894,-0.218247,301.369,386.806)">
            <path d="M-2.955,3.689L4.605,3.689" style="fill:none;fill-rule:nonzero;stroke:rgb(212,229,63);stroke-width:0.03px;"/>
        </g>
        <g transform="matrix(1,0,0,1,346.867,380.507)">
            <path d="M0,-73.118L-8.945,-81.495M-15.01,-72.709L-3.21,-59.587M0,-73.118L-15.01,-72.709M-3.21,-59.587L0,-73.118M-49.935,4.157L-49.742,8.377" style="fill:none;fill-rule:nonzero;stroke:rgb(212,229,63);stroke-width:0.03px;"/>
        </g>
        <g transform="matrix(0.204499,0.978867,0.978867,-0.204499,264.775,332.077)">
            <path d="M-8.132,-10.007L12.313,-10.007" style="fill:none;fill-rule:nonzero;stroke:rgb(212,229,63);stroke-width:0.03px;"/>
        </g>
        <g transform="matrix(1,0,0,1,338.109,385.036)">
            <path d="M0,116.085L-3.651,102.704M0,116.085L-5.943,103.176M-41.395,0L-40.984,3.849" style="fill:none;fill-rule:nonzero;stroke:rgb(212,229,63);stroke-width:0.03px;"/>
        </g>
        <g transform="matrix(1,0,0,1,297.124,497.814)">
            <path d="M0,-108.93L-2.615,-112.236M33.705,-5.868L40.984,3.306" style="fill:none;fill-rule:nonzero;stroke:rgb(212,229,63);stroke-width:0.03px;"/>
        </g>
        <g transform="matrix(0.389249,-0.921133,-0.921133,-0.389249,343.363,500.134)">
            <path d="M-2.955,4.456L6.721,4.456" style="fill:none;fill-rule:nonzero;stroke:rgb(212,229,63);stroke-width:0.03px;"/>
        </g>
        <g transform="matrix(1,0,0,1,377.017,359.602)">
            <path d="M0,11.966L-5.502,5.358M-11.492,0.048L-10.558,0" style="fill:none;fill-rule:nonzero;stroke:rgb(212,229,63);stroke-width:0.03px;"/>
        </g>
        <g transform="matrix(1,0,0,1,358.898,346.936)">
            <path d="M0,-26.818L14.372,-9.996M11.266,-14.263L0,-26.818M8.604,-38.059L11.266,-14.263M-2.216,-43.618L11.266,-14.263M0,-26.818L-2.216,-43.618M0,-26.818L-2.872,-40.448M-2.216,-43.618L-2.872,-40.448M14.372,-9.996L3.929,0.885M23.565,-42.819L46.297,-3.982M49.353,-27.648L23.565,-42.819M46.297,-3.982L49.353,-27.648M3.929,0.885L2.06,-15.188M3.929,0.885L-5.409,-0.23M-5.409,-0.23L2.06,-15.188M15.523,10.091L12.396,-3.836M3.929,0.885L-1.248,16.658M-1.248,16.658L5.021,16.8M12.815,-5.026L13.922,-3.652M13.286,-6.359L13.603,-6.393" style="fill:none;fill-rule:nonzero;stroke:rgb(212,229,63);stroke-width:0.03px;"/>
        </g>
        <g transform="matrix(-0.991302,0.131604,0.131604,0.991302,363.462,307.929)">
            <path d="M-19.337,-1.278L0.084,-1.278" style="fill:none;fill-rule:nonzero;stroke:rgb(212,229,63);stroke-width:0.03px;"/>
        </g>
        <g transform="matrix(1,0,0,1,381.778,359.383)">
            <path d="M0,-34.01L0.686,-55.265M-24.128,4.212L-15.393,22.964M-20.82,-27.634L-8.508,-22.442M-20.82,-27.634L-22.88,-39.264M0,-34.01L-9.609,-23.954M-9.746,-24.142L-4.529,-47.162M0,-34.01L-4.529,-47.162M-19.008,26.36L-18.855,23.433M-19.008,26.36L-20.55,23.662M-43.856,-60.37L-25.752,-52.894M-14.276,-50.505L-4.529,-47.162M-4.529,-47.162L0.686,-55.265M-14.276,-50.505L0.686,-55.265" style="fill:none;fill-rule:nonzero;stroke:rgb(212,229,63);stroke-width:0.03px;"/>
        </g>
        <g transform="matrix(0.961029,0.276447,0.276447,-0.961029,383.692,301.367)">
            <path d="M-0.421,-2.983L21.161,-2.983" style="fill:none;fill-rule:nonzero;stroke:rgb(212,229,63);stroke-width:0.03px;"/>
        </g>
        <g transform="matrix(1,0,0,1,408.25,315.289)">
            <path d="M0,4L13.36,9.205M-5.047,-5.205L0,4" style="fill:none;fill-rule:nonzero;stroke:rgb(212,229,63);stroke-width:0.03px;"/>
        </g>
        <g transform="matrix(-0.787411,-0.616428,-0.616428,0.787411,409.602,305.942)">
            <path d="M-20.892,7.205L2.485,7.205" style="fill:none;fill-rule:nonzero;stroke:rgb(212,229,63);stroke-width:0.03px;"/>
        </g>
        <g transform="matrix(0.767513,0.641034,0.641034,-0.767513,414.56,315.617)">
            <path d="M-2.489,-6.863L18.922,-6.862" style="fill:none;fill-rule:nonzero;stroke:rgb(212,229,63);stroke-width:0.03px;"/>
        </g>
        <g transform="matrix(-0.339189,-0.940718,-0.940718,0.339189,426.633,325.863)">
            <path d="M-6.064,4.26L2.992,4.26" style="fill:none;fill-rule:nonzero;stroke:rgb(212,229,63);stroke-width:0.03px;"/>
        </g>
        <g transform="matrix(1,0,0,1,363.681,339.653)">
            <path d="M0,20.615L2.061,19.189M8.716,0L-0.117,18.918" style="fill:none;fill-rule:nonzero;stroke:rgb(212,229,63);stroke-width:0.03px;"/>
        </g>
        <g transform="matrix(-0.728839,0.684685,0.684685,0.728839,364.423,386.519)">
            <path d="M-4.287,-1.698L0.672,-1.698" style="fill:none;fill-rule:nonzero;stroke:rgb(212,229,63);stroke-width:0.03px;"/>
        </g>
        <g transform="matrix(1,0,0,1,349.896,324.063)">
            <path d="M0,59.97L-4.464,72.723M-3.03,41.71L-4.464,72.723M0,59.97L-3.03,41.71M16.489,58.283L1.97,59.087M7.312,59.526L1.97,59.087M-10.333,36.104L-4.464,72.723M-4.464,72.723L-11.168,77.545M31.882,1.309L55.299,18.891M27.353,-11.843L20.268,8.61M-3.03,41.71L7.754,39.531M3.593,22.643L7.754,39.531M11.062,7.685L-6.239,-3.143M50.41,45.642L31.882,1.309M23.274,13.095L50.41,45.642M-6.239,-3.143L3.593,22.643M3.593,22.643L-10.199,21.459M9.002,-3.945L-6.239,-3.143M3.593,22.643L-10.333,36.104M3.593,22.643L-3.03,41.71M-10.333,36.104L-3.03,41.71M-3.029,-16.674L9.002,-3.945M6.13,-17.575L-3.029,-16.674" style="fill:none;fill-rule:nonzero;stroke:rgb(212,229,63);stroke-width:0.03px;"/>
        </g>
        <g transform="matrix(0.0127916,-0.999918,-0.999918,-0.0127916,378.994,462.864)">
            <path d="M-30.678,31.073L31.473,31.073" style="fill:none;fill-rule:nonzero;stroke:rgb(212,229,63);stroke-width:0.03px;"/>
        </g>
        <g transform="matrix(1,0,0,1,345.489,396.787)">
            <path d="M0,54.484L-0.057,0M-6.761,4.822L0,54.484" style="fill:none;fill-rule:nonzero;stroke:rgb(212,229,63);stroke-width:0.03px;"/>
        </g>
        <g transform="matrix(-0.97071,-0.240252,-0.240252,0.97071,356.268,383.266)">
            <path d="M-6.907,0.842L0.103,0.842" style="fill:none;fill-rule:nonzero;stroke:rgb(212,229,63);stroke-width:0.03px;"/>
        </g>
        <g transform="matrix(1,0,0,1,345.432,459.949)">
            <path d="M0,-63.163L2.895,-28.953M0.057,-8.679L2.895,-28.953M2.1,33.192L0.057,-8.679M-3.558,32.259L2.1,33.192M-3.558,32.259L0.057,-8.679M4.464,-75.916L12.218,-96.355M12.218,-96.355L6.434,-76.799M6.434,-76.799L4.464,-75.916" style="fill:none;fill-rule:nonzero;stroke:rgb(212,229,63);stroke-width:0.03px;"/>
        </g>
        <g transform="matrix(1,0,0,1,408.016,312.205)">
            <path d="M0,60.752L-25.425,74.077M-45.246,73.538L-50.809,71.385M-67.142,-12.514L-68.481,-13.325" style="fill:none;fill-rule:nonzero;stroke:rgb(212,229,63);stroke-width:0.03px;"/>
        </g>
        <g transform="matrix(-0.921435,-0.388532,-0.388532,0.921435,401.24,368.336)">
            <path d="M-8.039,1.625L0.329,1.626" style="fill:none;fill-rule:nonzero;stroke:rgb(212,229,63);stroke-width:0.03px;"/>
        </g>
        <g transform="matrix(0.323649,-0.946177,-0.946177,-0.323649,424.286,350.941)">
            <path d="M-3.086,4.316L6.039,4.316" style="fill:none;fill-rule:nonzero;stroke:rgb(212,229,63);stroke-width:0.03px;"/>
        </g>
        <g transform="matrix(1,0,0,1,400.306,384.708)">
            <path d="M0,-15.002L-15.749,-2.816M-15.749,-2.816L7.71,-11.751M-15.749,-2.816L-24.592,-16.576M-17.715,1.574L-15.749,-2.816" style="fill:none;fill-rule:nonzero;stroke:rgb(212,229,63);stroke-width:0.03px;"/>
        </g>
        <g transform="matrix(0.227403,-0.973801,-0.973801,-0.227403,428.399,340.882)">
            <path d="M-4.291,5.409L6.817,5.409" style="fill:none;fill-rule:nonzero;stroke:rgb(212,229,63);stroke-width:0.03px;"/>
        </g>
        <g transform="matrix(-0.271144,0.962539,0.962539,0.271144,430.561,348.012)">
            <path d="M-12.843,-9.725L7.364,-9.725" style="fill:none;fill-rule:nonzero;stroke:rgb(212,229,63);stroke-width:0.03px;"/>
        </g>
        <g transform="matrix(1,0,0,1,372.397,390.356)">
            <path d="M0,-50.704L-0.072,-51.321M0.027,-50.462L0,-50.704M-31.522,-90.666L-15.715,-87.038M-32.526,-90.897L-31.522,-90.666M-8.833,-31.786L-8.838,-31.869M-8.716,-30.089L-8.833,-31.786M-57.62,-32.426L-57.65,-32.199M-57.189,-35.706L-57.62,-32.426M0.104,-49.813L0.027,-50.462M0.423,-47.072L0.104,-49.813M2.024,-33.329L0.423,-47.072M-33.448,-91.108L-32.526,-90.897M-8.838,-31.869L-9.57,-42.535M-67.005,-49.669L-67.51,-44.907M-66.773,-51.862L-67.005,-49.669M-58.032,-29.286L-58.473,-25.939M-57.958,-29.849L-58.032,-29.286M-57.65,-32.199L-57.958,-29.849M-66.912,-52.823L-66.954,-52.751M-66.251,-53.962L-66.912,-52.823M4.13,-20.082L4.62,-18.788M3.317,-22.225L4.13,-20.082M-9.475,-7.541L-6.012,-8.01M-11.169,-7.312L-9.475,-7.541M-0.213,-49.779L0.027,-50.462M-0.684,-48.446L-0.213,-49.779M-1.103,-47.256L-0.684,-48.446M-6.655,-31.515L-1.103,-47.256M-0.229,-54.928L-0.365,-55.116M0.873,-53.416L-0.229,-54.928M0.773,-53.198L0.873,-53.416M0.256,-52.048L0.773,-53.198M-0.072,-51.321L0.256,-52.048M-8.838,-31.869L-0.072,-51.321M-0.882,-25.396L-5.937,-30.754M4.13,-20.082L-0.882,-25.396M-8.629,-28.82L-8.716,-30.089M-73.622,-8.85L-70.821,-13.651M-75.465,-5.692L-73.622,-8.85M-75.683,-5.321L-75.465,-5.692M-76.412,-4.07L-75.683,-5.321M-67.51,-44.907L-70.127,-20.207M-65.472,-55.307L-66.251,-53.962M-66.752,-49.295L-66.902,-49.516M-64.369,-45.772L-66.752,-49.295M-66.877,-52.583L-64.99,-48.474M-66.954,-52.751L-66.877,-52.583M3.317,-22.225L2.024,-33.329M4.62,-18.788L10.194,-4.075M-22.772,1.795L-22.501,-6.323M-24.07,40.64L-22.772,1.795M-16.431,-6.298L-21.207,-4.491M-15.189,-6.767L-16.431,-6.298M-21.207,-4.491L-20.531,-7.206M-22.772,1.795L-21.207,-4.491M-15.189,-6.767L-11.169,-7.312M-8.311,-25.349L-8.479,-26.62M-6.012,-8.01L-8.311,-25.349M-34.476,-91.344L-33.453,-91.109M-0.365,-55.116L-2.233,-57.683M-9.187,-83.683L-4.896,-81.479M-15.715,-87.038L-9.187,-83.683M-5.937,-30.754L-6.655,-31.515M-8.479,-26.62L-8.629,-28.82M-6.872,-30.706L-8.311,-25.349M-6.655,-31.515L-6.872,-30.706M-77.888,-4.778L-94.662,-12.824M-76.412,-4.07L-77.888,-4.778M-70.127,-20.207L-70.821,-13.651M-45.841,-5.546L-48.132,-11.37M-43.94,-0.717L-45.841,-5.546M-58.473,-25.939L-61.232,-4.924M-64.043,-57.768L-65.472,-55.307M-66.902,-49.516L-67.005,-49.669M-62.625,-82.704L-48.346,-87.461M-62.866,-82.624L-62.625,-82.704M-64.99,-48.474L-57.62,-32.426" style="fill:none;fill-rule:nonzero;stroke:rgb(212,229,63);stroke-width:0.03px;"/>
        </g>
    </g>
</svg>
