<?xml version="1.0" encoding="UTF-8" standalone="no"?>
<!DOCTYPE svg PUBLIC "-//W3C//DTD SVG 1.1//EN" "http://www.w3.org/Graphics/SVG/1.1/DTD/svg11.dtd">
<svg width="100%" height="100%" viewBox="0 0 590 81" version="1.1" xmlns="http://www.w3.org/2000/svg" xmlns:xlink="http://www.w3.org/1999/xlink" xml:space="preserve" xmlns:serif="http://www.serif.com/" style="fill-rule:evenodd;clip-rule:evenodd;stroke-linejoin:round;stroke-miterlimit:2;">
    <g transform="matrix(1.8792,0,0,1.83525,-398.857,-335.475)">
        <path d="M231.355,226.09L223.734,226.09L223.734,195.524L212.248,195.524L212.248,187.876L242.814,187.876L242.814,195.524L231.355,195.524L231.355,226.09Z" style="fill:rgb(124,181,24);fill-rule:nonzero;"/>
        <path d="M273.06,226.09L246.865,226.09L246.865,187.876L273.06,187.876L273.06,195.524L254.513,195.524L254.513,203.172L267.064,203.172L267.064,210.82L254.513,210.82L254.513,218.442L273.06,218.442L273.06,226.09Z" style="fill:rgb(124,181,24);fill-rule:nonzero;"/>
        <path d="M308.103,226.09L298.829,226.09L291.474,213.752L284.093,226.09L274.872,226.09L286.598,206.983L274.872,187.876L284.093,187.876L291.474,200.214L298.829,187.876L308.103,187.876L296.378,206.983L308.103,226.09Z" style="fill:rgb(124,181,24);fill-rule:nonzero;"/>
        <path d="M341.014,222.173C339.237,223.7 337.247,224.873 335.044,225.69C332.841,226.507 330.559,226.916 328.196,226.916C326.384,226.916 324.638,226.681 322.959,226.21C321.281,225.739 319.708,225.073 318.243,224.211C316.777,223.35 315.44,222.315 314.232,221.107C313.024,219.899 311.989,218.562 311.127,217.096C310.266,215.63 309.6,214.058 309.129,212.379C308.658,210.7 308.423,208.955 308.423,207.143C308.423,205.331 308.658,203.581 309.129,201.893C309.6,200.205 310.266,198.629 311.127,197.163C311.989,195.697 313.024,194.361 314.232,193.152C315.44,191.944 316.777,190.91 318.243,190.048C319.708,189.186 321.281,188.52 322.959,188.049C324.638,187.579 326.384,187.343 328.196,187.343C330.559,187.343 332.841,187.747 335.044,188.556C337.247,189.364 339.237,190.541 341.014,192.087L336.963,198.749C335.844,197.541 334.52,196.612 332.992,195.964C331.465,195.315 329.866,194.991 328.196,194.991C326.508,194.991 324.927,195.311 323.452,195.951C321.978,196.59 320.69,197.456 319.588,198.549C318.487,199.641 317.616,200.929 316.977,202.413C316.337,203.896 316.017,205.473 316.017,207.143C316.017,208.813 316.337,210.381 316.977,211.846C317.616,213.312 318.487,214.596 319.588,215.697C320.69,216.799 321.978,217.669 323.452,218.309C324.927,218.948 326.508,219.268 328.196,219.268C329.866,219.268 331.465,218.944 332.992,218.295C334.52,217.647 335.844,216.719 336.963,215.511L341.014,222.173Z" style="fill:rgb(124,181,24);fill-rule:nonzero;"/>
        <path d="M381.786,207.143C381.786,208.955 381.55,210.7 381.08,212.379C380.609,214.058 379.947,215.63 379.094,217.096C378.242,218.562 377.211,219.899 376.003,221.107C374.795,222.315 373.463,223.35 372.006,224.211C370.549,225.073 368.977,225.739 367.289,226.21C365.601,226.681 363.851,226.916 362.039,226.916C360.227,226.916 358.482,226.681 356.803,226.21C355.124,225.739 353.552,225.073 352.086,224.211C350.62,223.35 349.284,222.315 348.076,221.107C346.867,219.899 345.833,218.562 344.971,217.096C344.109,215.63 343.443,214.058 342.972,212.379C342.502,210.7 342.266,208.955 342.266,207.143C342.266,205.331 342.502,203.581 342.972,201.893C343.443,200.205 344.109,198.633 344.971,197.176C345.833,195.72 346.867,194.387 348.076,193.179C349.284,191.971 350.62,190.941 352.086,190.088C353.552,189.235 355.124,188.573 356.803,188.103C358.482,187.632 360.227,187.396 362.039,187.396C363.851,187.396 365.601,187.632 367.289,188.103C368.977,188.573 370.549,189.235 372.006,190.088C373.463,190.941 374.795,191.971 376.003,193.179C377.211,194.387 378.242,195.72 379.094,197.176C379.947,198.633 380.609,200.205 381.08,201.893C381.55,203.581 381.786,205.331 381.786,207.143ZM374.191,207.143C374.191,205.473 373.871,203.896 373.232,202.413C372.592,200.929 371.726,199.641 370.633,198.549C369.541,197.456 368.253,196.59 366.769,195.951C365.286,195.311 363.709,194.991 362.039,194.991C360.352,194.991 358.77,195.311 357.296,195.951C355.821,196.59 354.533,197.456 353.432,198.549C352.33,199.641 351.46,200.929 350.82,202.413C350.181,203.896 349.861,205.473 349.861,207.143C349.861,208.813 350.181,210.381 350.82,211.846C351.46,213.312 352.33,214.596 353.432,215.697C354.533,216.799 355.821,217.669 357.296,218.309C358.77,218.948 360.352,219.268 362.039,219.268C363.709,219.268 365.286,218.948 366.769,218.309C368.253,217.669 369.541,216.799 370.633,215.697C371.726,214.596 372.592,213.312 373.232,211.846C373.871,210.381 374.191,208.813 374.191,207.143Z" style="fill:rgb(124,181,24);fill-rule:nonzero;"/>
        <path d="M417.308,222.173C415.532,223.7 413.542,224.873 411.339,225.69C409.136,226.507 406.853,226.916 404.49,226.916C402.678,226.916 400.933,226.681 399.254,226.21C397.575,225.739 396.003,225.073 394.537,224.211C393.071,223.35 391.735,222.315 390.526,221.107C389.318,219.899 388.284,218.562 387.422,217.096C386.56,215.63 385.894,214.058 385.423,212.379C384.953,210.7 384.717,208.955 384.717,207.143C384.717,205.331 384.953,203.581 385.423,201.893C385.894,200.205 386.56,198.629 387.422,197.163C388.284,195.697 389.318,194.361 390.526,193.152C391.735,191.944 393.071,190.91 394.537,190.048C396.003,189.186 397.575,188.52 399.254,188.049C400.933,187.579 402.678,187.343 404.49,187.343C406.853,187.343 409.136,187.747 411.339,188.556C413.542,189.364 415.532,190.541 417.308,192.087L413.258,198.749C412.138,197.541 410.815,196.612 409.287,195.964C407.759,195.315 406.16,194.991 404.49,194.991C402.803,194.991 401.221,195.311 399.747,195.951C398.272,196.59 396.984,197.456 395.883,198.549C394.781,199.641 393.911,200.929 393.271,202.413C392.632,203.896 392.312,205.473 392.312,207.143C392.312,208.813 392.632,210.381 393.271,211.846C393.911,213.312 394.781,214.596 395.883,215.697C396.984,216.799 398.272,217.669 399.747,218.309C401.221,218.948 402.803,219.268 404.49,219.268C406.16,219.268 407.759,218.944 409.287,218.295C410.815,217.647 412.138,216.719 413.258,215.511L417.308,222.173Z" style="fill:rgb(124,181,24);fill-rule:nonzero;"/>
        <path d="M458.08,207.143C458.08,208.955 457.845,210.7 457.374,212.379C456.903,214.058 456.242,215.63 455.389,217.096C454.536,218.562 453.506,219.899 452.298,221.107C451.089,222.315 449.757,223.35 448.3,224.211C446.844,225.073 445.271,225.739 443.584,226.21C441.896,226.681 440.146,226.916 438.334,226.916C436.522,226.916 434.776,226.681 433.097,226.21C431.418,225.739 429.846,225.073 428.381,224.211C426.915,223.35 425.578,222.315 424.37,221.107C423.162,219.899 422.127,218.562 421.265,217.096C420.404,215.63 419.738,214.058 419.267,212.379C418.796,210.7 418.561,208.955 418.561,207.143C418.561,205.331 418.796,203.581 419.267,201.893C419.738,200.205 420.404,198.633 421.265,197.176C422.127,195.72 423.162,194.387 424.37,193.179C425.578,191.971 426.915,190.941 428.381,190.088C429.846,189.235 431.418,188.573 433.097,188.103C434.776,187.632 436.522,187.396 438.334,187.396C440.146,187.396 441.896,187.632 443.584,188.103C445.271,188.573 446.844,189.235 448.3,190.088C449.757,190.941 451.089,191.971 452.298,193.179C453.506,194.387 454.536,195.72 455.389,197.176C456.242,198.633 456.903,200.205 457.374,201.893C457.845,203.581 458.08,205.331 458.08,207.143ZM450.485,207.143C450.485,205.473 450.166,203.896 449.526,202.413C448.887,200.929 448.02,199.641 446.928,198.549C445.835,197.456 444.547,196.59 443.064,195.951C441.58,195.311 440.004,194.991 438.334,194.991C436.646,194.991 435.065,195.311 433.59,195.951C432.116,196.59 430.828,197.456 429.726,198.549C428.625,199.641 427.754,200.929 427.115,202.413C426.475,203.896 426.155,205.473 426.155,207.143C426.155,208.813 426.475,210.381 427.115,211.846C427.754,213.312 428.625,214.596 429.726,215.697C430.828,216.799 432.116,217.669 433.59,218.309C435.065,218.948 436.646,219.268 438.334,219.268C440.004,219.268 441.58,218.948 443.064,218.309C444.547,217.669 445.835,216.799 446.928,215.697C448.02,214.596 448.887,213.312 449.526,211.846C450.166,210.381 450.485,208.813 450.485,207.143Z" style="fill:rgb(124,181,24);fill-rule:nonzero;"/>
        <path d="M488.966,214.631C488.966,216.212 488.664,217.696 488.06,219.081C487.456,220.467 486.634,221.68 485.595,222.719C484.555,223.758 483.343,224.58 481.957,225.184C480.572,225.788 479.088,226.09 477.507,226.09L462.211,226.09L462.211,218.442L477.507,218.442C478.04,218.442 478.537,218.344 478.999,218.149C479.461,217.953 479.865,217.682 480.212,217.336C480.558,216.99 480.829,216.585 481.025,216.123C481.22,215.662 481.318,215.164 481.318,214.631C481.318,214.098 481.22,213.601 481.025,213.139C480.829,212.677 480.558,212.273 480.212,211.926C479.865,211.58 479.461,211.309 478.999,211.114C478.537,210.918 478.04,210.82 477.507,210.82L467.087,210.82L467.087,203.172L477.507,203.172C478.04,203.172 478.537,203.075 478.999,202.879C479.461,202.684 479.865,202.413 480.212,202.066C480.558,201.72 480.829,201.311 481.025,200.841C481.22,200.37 481.318,199.868 481.318,199.335C481.318,198.802 481.22,198.305 481.025,197.843C480.829,197.381 480.558,196.977 480.212,196.63C479.865,196.284 479.461,196.013 478.999,195.817C478.537,195.622 478.04,195.524 477.507,195.524L462.211,195.524L462.211,187.876L477.507,187.876C479.088,187.876 480.572,188.178 481.957,188.782C483.343,189.386 484.555,190.208 485.595,191.247C486.634,192.286 487.456,193.499 488.06,194.885C488.664,196.27 488.966,197.754 488.966,199.335C488.966,200.738 488.708,202.102 488.193,203.425C487.678,204.749 486.949,205.935 486.008,206.983C486.949,208.031 487.678,209.217 488.193,210.541C488.708,211.864 488.966,213.228 488.966,214.631Z" style="fill:rgb(251,176,45);fill-rule:nonzero;"/>
        <path d="M525.741,206.983C525.741,208.742 525.514,210.434 525.061,212.06C524.608,213.685 523.964,215.204 523.129,216.616C522.294,218.029 521.299,219.317 520.144,220.48C518.99,221.644 517.702,222.643 516.28,223.478C514.859,224.313 513.336,224.957 511.71,225.41C510.085,225.863 508.393,226.09 506.634,226.09L495.122,226.09L495.122,187.876L506.634,187.876C508.393,187.876 510.085,188.103 511.71,188.556C513.336,189.009 514.859,189.653 516.28,190.488C517.702,191.323 518.99,192.322 520.144,193.486C521.299,194.649 522.294,195.937 523.129,197.35C523.964,198.762 524.608,200.281 525.061,201.907C525.514,203.532 525.741,205.224 525.741,206.983ZM518.093,206.983C518.093,205.402 517.795,203.918 517.2,202.533C516.605,201.147 515.787,199.935 514.748,198.895C513.709,197.856 512.492,197.034 511.097,196.43C509.703,195.826 508.215,195.524 506.634,195.524L502.823,195.524L502.823,218.442L506.634,218.442C508.215,218.442 509.703,218.144 511.097,217.549C512.492,216.954 513.709,216.137 514.748,215.097C515.787,214.058 516.605,212.841 517.2,211.447C517.795,210.052 518.093,208.564 518.093,206.983Z" style="fill:rgb(251,176,45);fill-rule:nonzero;"/>
    </g>
    <g transform="matrix(1.8792,0,0,1.83525,-398.857,-343.822)">
        <path d="M231.355,226.09L223.734,226.09L223.734,195.524L212.248,195.524L212.248,187.876L242.814,187.876L242.814,195.524L231.355,195.524L231.355,226.09Z" style="fill:rgb(92,128,1);fill-rule:nonzero;"/>
        <path d="M273.06,226.09L246.865,226.09L246.865,187.876L273.06,187.876L273.06,195.524L254.513,195.524L254.513,203.172L267.064,203.172L267.064,210.82L254.513,210.82L254.513,218.442L273.06,218.442L273.06,226.09Z" style="fill:rgb(92,128,1);fill-rule:nonzero;"/>
        <path d="M308.103,226.09L298.829,226.09L291.474,213.752L284.093,226.09L274.872,226.09L286.598,206.983L274.872,187.876L284.093,187.876L291.474,200.214L298.829,187.876L308.103,187.876L296.378,206.983L308.103,226.09Z" style="fill:rgb(92,128,1);fill-rule:nonzero;"/>
        <path d="M341.014,222.173C339.237,223.7 337.247,224.873 335.044,225.69C332.841,226.507 330.559,226.916 328.196,226.916C326.384,226.916 324.638,226.681 322.959,226.21C321.281,225.739 319.708,225.073 318.243,224.211C316.777,223.35 315.44,222.315 314.232,221.107C313.024,219.899 311.989,218.562 311.127,217.096C310.266,215.63 309.6,214.058 309.129,212.379C308.658,210.7 308.423,208.955 308.423,207.143C308.423,205.331 308.658,203.581 309.129,201.893C309.6,200.205 310.266,198.629 311.127,197.163C311.989,195.697 313.024,194.361 314.232,193.152C315.44,191.944 316.777,190.91 318.243,190.048C319.708,189.186 321.281,188.52 322.959,188.049C324.638,187.579 326.384,187.343 328.196,187.343C330.559,187.343 332.841,187.747 335.044,188.556C337.247,189.364 339.237,190.541 341.014,192.087L336.963,198.749C335.844,197.541 334.52,196.612 332.992,195.964C331.465,195.315 329.866,194.991 328.196,194.991C326.508,194.991 324.927,195.311 323.452,195.951C321.978,196.59 320.69,197.456 319.588,198.549C318.487,199.641 317.616,200.929 316.977,202.413C316.337,203.896 316.017,205.473 316.017,207.143C316.017,208.813 316.337,210.381 316.977,211.846C317.616,213.312 318.487,214.596 319.588,215.697C320.69,216.799 321.978,217.669 323.452,218.309C324.927,218.948 326.508,219.268 328.196,219.268C329.866,219.268 331.465,218.944 332.992,218.295C334.52,217.647 335.844,216.719 336.963,215.511L341.014,222.173Z" style="fill:rgb(92,128,1);fill-rule:nonzero;"/>
        <path d="M381.786,207.143C381.786,208.955 381.55,210.7 381.08,212.379C380.609,214.058 379.947,215.63 379.094,217.096C378.242,218.562 377.211,219.899 376.003,221.107C374.795,222.315 373.463,223.35 372.006,224.211C370.549,225.073 368.977,225.739 367.289,226.21C365.601,226.681 363.851,226.916 362.039,226.916C360.227,226.916 358.482,226.681 356.803,226.21C355.124,225.739 353.552,225.073 352.086,224.211C350.62,223.35 349.284,222.315 348.076,221.107C346.867,219.899 345.833,218.562 344.971,217.096C344.109,215.63 343.443,214.058 342.972,212.379C342.502,210.7 342.266,208.955 342.266,207.143C342.266,205.331 342.502,203.581 342.972,201.893C343.443,200.205 344.109,198.633 344.971,197.176C345.833,195.72 346.867,194.387 348.076,193.179C349.284,191.971 350.62,190.941 352.086,190.088C353.552,189.235 355.124,188.573 356.803,188.103C358.482,187.632 360.227,187.396 362.039,187.396C363.851,187.396 365.601,187.632 367.289,188.103C368.977,188.573 370.549,189.235 372.006,190.088C373.463,190.941 374.795,191.971 376.003,193.179C377.211,194.387 378.242,195.72 379.094,197.176C379.947,198.633 380.609,200.205 381.08,201.893C381.55,203.581 381.786,205.331 381.786,207.143ZM374.191,207.143C374.191,205.473 373.871,203.896 373.232,202.413C372.592,200.929 371.726,199.641 370.633,198.549C369.541,197.456 368.253,196.59 366.769,195.951C365.286,195.311 363.709,194.991 362.039,194.991C360.352,194.991 358.77,195.311 357.296,195.951C355.821,196.59 354.533,197.456 353.432,198.549C352.33,199.641 351.46,200.929 350.82,202.413C350.181,203.896 349.861,205.473 349.861,207.143C349.861,208.813 350.181,210.381 350.82,211.846C351.46,213.312 352.33,214.596 353.432,215.697C354.533,216.799 355.821,217.669 357.296,218.309C358.77,218.948 360.352,219.268 362.039,219.268C363.709,219.268 365.286,218.948 366.769,218.309C368.253,217.669 369.541,216.799 370.633,215.697C371.726,214.596 372.592,213.312 373.232,211.846C373.871,210.381 374.191,208.813 374.191,207.143Z" style="fill:rgb(92,128,1);fill-rule:nonzero;"/>
        <path d="M417.308,222.173C415.532,223.7 413.542,224.873 411.339,225.69C409.136,226.507 406.853,226.916 404.49,226.916C402.678,226.916 400.933,226.681 399.254,226.21C397.575,225.739 396.003,225.073 394.537,224.211C393.071,223.35 391.735,222.315 390.526,221.107C389.318,219.899 388.284,218.562 387.422,217.096C386.56,215.63 385.894,214.058 385.423,212.379C384.953,210.7 384.717,208.955 384.717,207.143C384.717,205.331 384.953,203.581 385.423,201.893C385.894,200.205 386.56,198.629 387.422,197.163C388.284,195.697 389.318,194.361 390.526,193.152C391.735,191.944 393.071,190.91 394.537,190.048C396.003,189.186 397.575,188.52 399.254,188.049C400.933,187.579 402.678,187.343 404.49,187.343C406.853,187.343 409.136,187.747 411.339,188.556C413.542,189.364 415.532,190.541 417.308,192.087L413.258,198.749C412.138,197.541 410.815,196.612 409.287,195.964C407.759,195.315 406.16,194.991 404.49,194.991C402.803,194.991 401.221,195.311 399.747,195.951C398.272,196.59 396.984,197.456 395.883,198.549C394.781,199.641 393.911,200.929 393.271,202.413C392.632,203.896 392.312,205.473 392.312,207.143C392.312,208.813 392.632,210.381 393.271,211.846C393.911,213.312 394.781,214.596 395.883,215.697C396.984,216.799 398.272,217.669 399.747,218.309C401.221,218.948 402.803,219.268 404.49,219.268C406.16,219.268 407.759,218.944 409.287,218.295C410.815,217.647 412.138,216.719 413.258,215.511L417.308,222.173Z" style="fill:rgb(92,128,1);fill-rule:nonzero;"/>
        <path d="M458.08,207.143C458.08,208.955 457.845,210.7 457.374,212.379C456.903,214.058 456.242,215.63 455.389,217.096C454.536,218.562 453.506,219.899 452.298,221.107C451.089,222.315 449.757,223.35 448.3,224.211C446.844,225.073 445.271,225.739 443.584,226.21C441.896,226.681 440.146,226.916 438.334,226.916C436.522,226.916 434.776,226.681 433.097,226.21C431.418,225.739 429.846,225.073 428.381,224.211C426.915,223.35 425.578,222.315 424.37,221.107C423.162,219.899 422.127,218.562 421.265,217.096C420.404,215.63 419.738,214.058 419.267,212.379C418.796,210.7 418.561,208.955 418.561,207.143C418.561,205.331 418.796,203.581 419.267,201.893C419.738,200.205 420.404,198.633 421.265,197.176C422.127,195.72 423.162,194.387 424.37,193.179C425.578,191.971 426.915,190.941 428.381,190.088C429.846,189.235 431.418,188.573 433.097,188.103C434.776,187.632 436.522,187.396 438.334,187.396C440.146,187.396 441.896,187.632 443.584,188.103C445.271,188.573 446.844,189.235 448.3,190.088C449.757,190.941 451.089,191.971 452.298,193.179C453.506,194.387 454.536,195.72 455.389,197.176C456.242,198.633 456.903,200.205 457.374,201.893C457.845,203.581 458.08,205.331 458.08,207.143ZM450.485,207.143C450.485,205.473 450.166,203.896 449.526,202.413C448.887,200.929 448.02,199.641 446.928,198.549C445.835,197.456 444.547,196.59 443.064,195.951C441.58,195.311 440.004,194.991 438.334,194.991C436.646,194.991 435.065,195.311 433.59,195.951C432.116,196.59 430.828,197.456 429.726,198.549C428.625,199.641 427.754,200.929 427.115,202.413C426.475,203.896 426.155,205.473 426.155,207.143C426.155,208.813 426.475,210.381 427.115,211.846C427.754,213.312 428.625,214.596 429.726,215.697C430.828,216.799 432.116,217.669 433.59,218.309C435.065,218.948 436.646,219.268 438.334,219.268C440.004,219.268 441.58,218.948 443.064,218.309C444.547,217.669 445.835,216.799 446.928,215.697C448.02,214.596 448.887,213.312 449.526,211.846C450.166,210.381 450.485,208.813 450.485,207.143Z" style="fill:rgb(92,128,1);fill-rule:nonzero;"/>
        <path d="M488.966,214.631C488.966,216.212 488.664,217.696 488.06,219.081C487.456,220.467 486.634,221.68 485.595,222.719C484.555,223.758 483.343,224.58 481.957,225.184C480.572,225.788 479.088,226.09 477.507,226.09L462.211,226.09L462.211,218.442L477.507,218.442C478.04,218.442 478.537,218.344 478.999,218.149C479.461,217.953 479.865,217.682 480.212,217.336C480.558,216.99 480.829,216.585 481.025,216.123C481.22,215.662 481.318,215.164 481.318,214.631C481.318,214.098 481.22,213.601 481.025,213.139C480.829,212.677 480.558,212.273 480.212,211.926C479.865,211.58 479.461,211.309 478.999,211.114C478.537,210.918 478.04,210.82 477.507,210.82L467.087,210.82L467.087,203.172L477.507,203.172C478.04,203.172 478.537,203.075 478.999,202.879C479.461,202.684 479.865,202.413 480.212,202.066C480.558,201.72 480.829,201.311 481.025,200.841C481.22,200.37 481.318,199.868 481.318,199.335C481.318,198.802 481.22,198.305 481.025,197.843C480.829,197.381 480.558,196.977 480.212,196.63C479.865,196.284 479.461,196.013 478.999,195.817C478.537,195.622 478.04,195.524 477.507,195.524L462.211,195.524L462.211,187.876L477.507,187.876C479.088,187.876 480.572,188.178 481.957,188.782C483.343,189.386 484.555,190.208 485.595,191.247C486.634,192.286 487.456,193.499 488.06,194.885C488.664,196.27 488.966,197.754 488.966,199.335C488.966,200.738 488.708,202.102 488.193,203.425C487.678,204.749 486.949,205.935 486.008,206.983C486.949,208.031 487.678,209.217 488.193,210.541C488.708,211.864 488.966,213.228 488.966,214.631Z" style="fill:rgb(251,97,7);fill-rule:nonzero;"/>
        <path d="M525.741,206.983C525.741,208.742 525.514,210.434 525.061,212.06C524.608,213.685 523.964,215.204 523.129,216.616C522.294,218.029 521.299,219.317 520.144,220.48C518.99,221.644 517.702,222.643 516.28,223.478C514.859,224.313 513.336,224.957 511.71,225.41C510.085,225.863 508.393,226.09 506.634,226.09L495.122,226.09L495.122,187.876L506.634,187.876C508.393,187.876 510.085,188.103 511.71,188.556C513.336,189.009 514.859,189.653 516.28,190.488C517.702,191.323 518.99,192.322 520.144,193.486C521.299,194.649 522.294,195.937 523.129,197.35C523.964,198.762 524.608,200.281 525.061,201.907C525.514,203.532 525.741,205.224 525.741,206.983ZM518.093,206.983C518.093,205.402 517.795,203.918 517.2,202.533C516.605,201.147 515.787,199.935 514.748,198.895C513.709,197.856 512.492,197.034 511.097,196.43C509.703,195.826 508.215,195.524 506.634,195.524L502.823,195.524L502.823,218.442L506.634,218.442C508.215,218.442 509.703,218.144 511.097,217.549C512.492,216.954 513.709,216.137 514.748,215.097C515.787,214.058 516.605,212.841 517.2,211.447C517.795,210.052 518.093,208.564 518.093,206.983Z" style="fill:rgb(251,97,7);fill-rule:nonzero;"/>
    </g>
</svg>
